<?xml version="1.0" encoding="utf-8"?>
<!-- Generator: Adobe Illustrator 27.7.0, SVG Export Plug-In . SVG Version: 6.00 Build 0)  -->
<svg version="1.1" id="Layer_1" xmlns="http://www.w3.org/2000/svg" xmlns:xlink="http://www.w3.org/1999/xlink" x="0px" y="0px"
	 viewBox="0 0 89.62 65.21" style="enable-background:new 0 0 89.62 65.21;" xml:space="preserve">
<style type="text/css">
	.st0{fill:#1A3C4A;}
	.st1{fill:#FFFFFF;}
	.st2{fill:#97999C;}
	.st3{clip-path:url(#SVGID_00000115477529554413971610000011640272804289465241_);}
	.st4{fill:none;stroke:#FFFFFF;stroke-linecap:round;stroke-miterlimit:10;}
</style>
<g>
	<path class="st0" d="M88.83,33.57c-0.98-0.86-2.47-0.77-3.33,0.2c-0.61,0.69-0.74,1.65-0.41,2.45l-5.71,6.45
		c-1.58-0.78-3.55-0.47-4.77,0.92c-1.23,1.39-1.3,3.38-0.33,4.85l-5.2,5.88c-2.16-1.27-4.98-0.87-6.71,1.08
		c-1.96,2.21-1.75,5.59,0.46,7.55c2.21,1.96,5.59,1.75,7.55-0.46c1.72-1.95,1.77-4.8,0.25-6.79l5.2-5.88
		c1.58,0.78,3.55,0.47,4.77-0.92c1.23-1.39,1.3-3.38,0.33-4.85l5.71-6.45c0.84,0.23,1.77-0.01,2.38-0.7
		C89.89,35.92,89.8,34.43,88.83,33.57z"/>
	<path class="st0" d="M60.48,33.54c1.58,0.78,3.55,0.47,4.77-0.92c1.23-1.39,1.3-3.38,0.33-4.85l5.71-6.45
		c0.84,0.23,1.77-0.01,2.38-0.7c0.86-0.98,0.77-2.47-0.2-3.33c-0.98-0.86-2.47-0.77-3.33,0.2c-0.61,0.69-0.74,1.65-0.41,2.45
		l-5.71,6.45c-1.58-0.78-3.55-0.47-4.77,0.92c-1.23,1.39-1.3,3.38-0.33,4.85l-5.2,5.88c-2.16-1.26-4.98-0.87-6.71,1.08
		s-1.77,4.8-0.25,6.79L41,52.42c-2.62-1.65-6.11-1.22-8.23,1.18c-2.35,2.66-2.1,6.72,0.56,9.07c2.66,2.35,6.72,2.1,9.07-0.56
		c2.12-2.39,2.12-5.92,0.16-8.31l5.76-6.51c2.16,1.26,4.98,0.87,6.71-1.08c1.72-1.95,1.77-4.8,0.25-6.79L60.48,33.54z"/>
	<path class="st0" d="M32.96,30.6c2.16,1.27,4.98,0.87,6.71-1.08c1.72-1.95,1.77-4.8,0.25-6.79l5.2-5.88
		c1.58,0.78,3.55,0.47,4.77-0.92c1.23-1.39,1.3-3.38,0.33-4.85l5.71-6.45c0.84,0.23,1.77-0.01,2.38-0.7
		c0.86-0.98,0.77-2.47-0.2-3.33s-2.47-0.77-3.33,0.2c-0.61,0.69-0.74,1.65-0.41,2.45L48.66,9.7c-1.58-0.78-3.55-0.46-4.77,0.92
		c-1.23,1.39-1.3,3.38-0.33,4.85l-5.2,5.88c-2.16-1.26-4.98-0.87-6.71,1.08c-1.72,1.95-1.77,4.8-0.25,6.79l-5.76,6.51
		c-2.62-1.65-6.11-1.22-8.23,1.18c-2.12,2.39-2.12,5.92-0.16,8.31l-4.32,4.88c-3.4-2.32-8.06-1.81-10.86,1.35
		c-3.03,3.42-2.71,8.66,0.72,11.68s8.66,2.71,11.68-0.72c2.79-3.16,2.73-7.85,0.01-10.94l4.32-4.88c2.62,1.65,6.11,1.22,8.23-1.18
		c2.12-2.39,2.12-5.92,0.16-8.31L32.96,30.6z"/>
</g>
</svg>
