<?xml version="1.0" encoding="UTF-8"?><svg id="_レイヤー_1" xmlns="http://www.w3.org/2000/svg" viewBox="0 0 366.1 85.29"><defs><style>.cls-1{fill:#231815;}.cls-2{fill:#0d376b;}.cls-3{fill:#c64532;}</style></defs><polygon class="cls-2" points="21.89 0 21.88 0 21.88 0 21.89 0"/><polygon class="cls-2" points="87.54 0 87.54 0 87.53 0 87.54 0"/><path class="cls-2" d="M71.12,47.38c-.43.74-.86,1.49-1.29,2.23l1.29-2.23h0Z"/><polygon class="cls-2" points="49.24 66.33 49.24 66.33 49.24 66.33 49.24 66.33"/><polygon class="cls-2" points="21.89 18.95 21.88 18.95 21.88 18.95 21.89 18.95"/><polygon class="cls-2" points="32.83 18.95 32.83 18.95 32.82 18.95 32.83 18.95"/><polygon class="cls-2" points="76.6 18.95 76.6 18.95 76.59 18.95 76.6 18.95"/><polygon class="cls-2" points="21.89 0 21.88 0 21.88 0 21.89 0"/><polygon class="cls-2" points="49.24 66.33 49.24 66.33 49.24 66.33 49.24 66.33"/><polygon class="cls-2" points="21.89 18.95 21.88 18.95 21.88 18.95 21.89 18.95"/><polygon class="cls-2" points="32.83 18.95 32.83 18.95 32.82 18.95 32.83 18.95"/><polygon class="cls-2" points="76.6 18.95 76.6 18.95 76.59 18.95 76.6 18.95"/><polygon class="cls-2" points="87.54 0 87.54 0 87.53 0 87.54 0"/><polygon class="cls-2" points="21.89 0 21.88 0 21.88 0 21.89 0"/><polygon class="cls-2" points="21.89 18.95 21.88 18.95 21.88 18.95 21.89 18.95"/><polygon class="cls-2" points="32.83 18.95 32.83 18.95 32.82 18.95 32.83 18.95"/><polygon class="cls-2" points="21.89 0 21.88 0 21.88 0 21.89 0"/><polygon class="cls-2" points="21.89 18.95 21.88 18.95 21.88 18.95 21.89 18.95"/><polygon class="cls-2" points="32.83 18.95 32.83 18.95 32.82 18.95 32.83 18.95"/><polygon class="cls-2" points="21.89 0 21.88 0 21.88 0 21.89 0"/><polygon class="cls-2" points="21.89 18.95 21.88 18.95 21.88 18.95 21.89 18.95"/><polygon class="cls-2" points="32.83 18.95 32.83 18.95 32.82 18.95 32.83 18.95"/><polygon class="cls-2" points="21.89 0 21.88 0 21.88 0 21.89 0"/><polygon class="cls-2" points="21.89 18.95 21.88 18.95 21.88 18.95 21.89 18.95"/><polygon class="cls-2" points="32.83 18.95 32.83 18.95 32.82 18.95 32.83 18.95"/><polygon class="cls-2" points="21.89 0 21.88 0 21.88 0 21.89 0"/><polygon class="cls-2" points="21.89 18.95 21.88 18.95 21.88 18.95 21.89 18.95"/><polygon class="cls-2" points="21.89 0 21.88 0 21.88 0 21.89 0"/><path class="cls-3" d="M60.18,28.43H16.41l-5.47-9.48h54.71l-5.47,9.48Z"/><path class="cls-2" d="M98.48,0c-9.12,15.79-18.24,31.59-27.36,47.38-7.3,12.64-14.59,25.27-21.89,37.91-2.74-4.74-5.47-9.48-8.21-14.21h5.47c11.85-20.53,23.71-41.06,35.56-61.59H10.94l-2.73,4.74C5.47,9.48,2.74,4.74,0,0h98.48Z"/><polygon class="cls-2" points="21.89 0 21.88 0 21.88 0 21.89 0"/><path class="cls-2" d="M71.12,47.38c-.43.74-.86,1.49-1.29,2.23l1.29-2.23h0Z"/><polygon class="cls-2" points="76.6 18.95 76.6 18.95 76.59 18.95 76.6 18.95"/><polygon class="cls-2" points="87.54 0 87.54 0 87.53 0 87.54 0"/><path class="cls-2" d="M38.3,66.33c-1.82-3.16-3.65-6.32-5.47-9.47,1.82-3.16,3.65-6.32,5.47-9.47h0s-10.94,0-10.94,0l-5.47-9.47h32.83c-5.47,9.47-10.94,18.95-16.41,28.43Z"/><path class="cls-2" d="M158.14,67.83c-.25.16-1.05.72-2.12.7-.51,0-.91-.15-1.52-.37-.53-.19-1.28-.51-2.11-1.04v8.53h12.53v-8.53c-4.04-.37-5.87.12-6.78.7ZM155.8,73.77v-3.25c.87-.83,1.72-1.19,2.27-1.35,1.07-.33,2.71-.47,2.97.1.05.12.02.22-.03.48,0,0-.05.22-.16,1.9-.04.49,0,1.2.28,2.13h-5.34Z"/><path class="cls-2" d="M172.49,60.16v15.52h-4.12v-12.38h-17.06c-.33-1.05-.66-2.09-.99-3.14h22.17Z"/><rect class="cls-2" x="152.25" y="64.44" width="12.68" height="1.53"/><path class="cls-2" d="M192.55,73.03v-1.44h5.93v-1.81h-5.93v-.67h4.94v-1.32h-4.94v-1.07h5.44c.02-.44.03-.88.05-1.32.05-.19.09-.38.13-.58.02-.1.04-.19.05-.28h1.71v-1.53h-1.51c.03-.37.05-.73.06-1.07v-1.33h-5.93v-1.3h-4.01v1.3h-3.9v1.33h3.9v1.07h-5.65v-1.8h-6.51v1.86h3.4c-.59,1-1.18,2-1.77,2.99h-1.06v1.9h3.29c-.02.2-.04.43-.09.66-.04.18-.08.34-.12.49-.36,0-.72,0-1.08,0-.08,0-.18.02-.26.09-.05.06-.14.2.05.82.07.24.19.56.39.92-.73,1.13-1.46,2.26-2.2,3.39-.09.13-.11.23-.11.3-.02.48.75.99,1.42.97.1,0,.18-.01.22-.02.23-.16.47-.34.72-.53.54-.43.99-.86,1.38-1.27.56.42,1.38.93,2.46,1.33.89.32,1.69.46,2.31.53,4.42.01,8.83.02,13.25.04.57-.92,1.14-1.84,1.7-2.76-2.58.03-5.15.06-7.72.1ZM192.55,61.94h2c-.02.36-.04.71-.06,1.07h-1.94v-1.07ZM192.55,64.54h1.86c-.02.29-.03.58-.05.86h-1.81v-.86ZM188.55,65.4h-3.9v1.32h3.9v1.07h-3.59v1.32h3.59v.67h-4.78v1.81h4.78v1.49c-1.2.02-2.4.03-3.6.05-.48-.05-1.12-.16-1.83-.43-.55-.21-1-.46-1.34-.69.6-1.35,1.21-2.7,1.81-4.05v-1.9h-2.88c.2-.23.41-.47.61-.73.27-.34.52-.68.76-1.01v.21h6.47v.86Z"/><path class="cls-2" d="M213.6,74.7c.06.34.11.67.17,1v-1.02c-.06,0-.12.01-.17.02Z"/><path class="cls-2" d="M225.84,68.97c.15-.31.13-.52.09-.65-.18-.59-1.26-.96-2.7-.77h-8.49c1.62-.32,2.9-1.12,3.52-2.29.22-.41.47-1.08.43-2.06v-.57c.82-.22,1.64-.45,2.46-.68-.03,1.39-.05,2.78-.08,4.16.08.28.24.67.6.9.44.29.85.14,2.62-.23,1.46-.3,1.7-.3,2.01-.59.59-.53.69-1.33.7-1.74-.79,0-1.59,0-2.38,0,.01-1.11.03-2.22.05-3.33.01-.18.03-.72-.32-1.19-.13-.17-.27-.29-.39-.38-.24-.1-.62-.22-1.09-.24-.52-.02-.93.08-1.18.17-.99.29-1.99.57-2.97.86,0-.34-.01-.69-.02-1.03h-3.03c0,1.26-.02,2.51-.03,3.77-.05.49-.23,1.51-.97,2.49-.73.97-1.67,1.47-2.38,1.72v-.57h-7.28v1.52h7.28v-.59c.87.08,1.69.03,2.45-.12v1.76h1.01c.12.46.43,1.35,1.23,2.15.45.45.91.72,1.26.89-.41.45-1.11,1.1-2.15,1.63-.9.45-1.73.63-2.31.72v1.02c.8-.02,1.74-.1,2.77-.3,1.54-.3,2.81-.78,3.78-1.23.47.26.98.52,1.53.77,1.35.61,2.63,1.03,3.78,1.32l1.29-4.09c-1.23-.02-2.45-.03-3.68-.05.87-1.06,1.74-2.11,2.61-3.16ZM219.12,70.74c-.26-.12-.6-.3-.95-.61-.33-.29-.56-.59-.71-.83h3.75c-.7.48-1.39.96-2.09,1.44Z"/><polygon class="cls-2" points="214.14 63.39 203.14 63.39 203.14 61.57 206.95 61.57 206.95 59.31 210.32 59.31 210.32 61.57 214.14 61.57 214.14 63.39"/><rect class="cls-2" x="205.11" y="63.99" width="7.28" height="1.52"/><path class="cls-2" d="M213.77,69.27c-3.05-.28-4.43.09-5.12.53-.19.12-.79.54-1.6.53-.39,0-.69-.12-1.15-.28-.4-.15-.96-.38-1.59-.78v6.43h9.45c-.06-.33-.12-.67-.17-1,.06,0,.11-.01.17-.02v-5.41ZM206.89,74.28v-2.45c.66-.63,1.3-.89,1.71-1.02.8-.25,2.04-.35,2.25.08.04.09.02.16-.02.36,0,0-.04.17-.12,1.43-.03.37,0,.91.21,1.6h-4.02Z"/><path class="cls-2" d="M213.77,74.68v1.02c-.06-.33-.12-.67-.17-1,.06,0,.11-.01.17-.02Z"/><path class="cls-2" d="M253.03,75.52h-3.52c-.75-1.28-1.5-2.55-2.25-3.83v3.87h-3.25v-3.87c-.09.15-1.04,1.76-1.13,1.91-.09.15-1.04,1.76-1.12,1.91-1.17,0-2.35,0-3.52,0,1.24-2.39,2.49-4.78,3.73-7.17h-2.8v-1.83h4.84v-1.86h-7.51v.28c.7,1.21,1.39,2.41,2.08,3.62.09.14.23.35.41.59.27.36.37.44.36.58-.02.33-.67.54-.82.59-.33.11-1.04.26-2.03-.09v5.32h-3.04v-3.64c-.32.38-.75.82-1.31,1.24-.29.21-.57.39-.83.53-.44.24-.98.17-1.35-.15-.39-.35-.51-.93-.28-1.41.62-.68,1.33-1.56,1.98-2.67,1.07-1.83,1.55-3.55,1.79-4.77v-.02h-2.78c-.21-.18-.83-.74-.83-1.53,0-.09,0-.19.03-.3,1.19,0,2.39,0,3.58,0v-3.54h3.04v3.54c.79,0,1.58,0,2.37,0v-3.55h2.84v3.53h2.3v-3.53h3.25v3.53h1.89v-3.53h2.84v5.36h-4.73v1.86h4.89v1.83h-2.85c1.24,2.39,2.48,4.78,3.73,7.17Z"/><path class="cls-2" d="M268.69,69.94c.19.13.11.55-.03,1.19-.14.66-.21.99-.47,1.29-.19.22-.4.35-.54.42-.7.51-1.59,1.08-2.67,1.6-1.19.57-2.29.91-3.19,1.13h-5.68v-3.19h4.02v-4.1h-3.03v-2.18h9.89v2.18h-2.84v3.59c.48-.14.99-.31,1.51-.52,1.08-.44,1.98-.94,2.7-1.41.1-.03.23-.07.33,0Z"/><path class="cls-2" d="M279.81,64.37h-8.31c2.05,3.01,4.1,6.01,6.15,9.02.6,0,1.2.02,1.81.03-.11.72-.22,1.43-.32,2.15h-4.71c-2.36-3.73-4.72-7.46-7.08-11.2h-11.2v-2.24h9.78c-.6-.94-1.19-1.88-1.79-2.83h3.9c.64.94,1.28,1.89,1.93,2.83h2.04l-1.63-2.83h5.41l-1.63,2.83h5.65v2.24Z"/><path class="cls-2" d="M300.34,69.72h4.21v-2.04h-19.82v2.04h3.63c-.38.37-1.89,1.86-2.26,2.23-.36.36-1.87,1.85-2.24,2.21-.18.36-.15.78.07,1.1.24.36.7.53,1.13.43h19.38c.31.03.62-.11.79-.36.2-.29.2-.68,0-.98-1.63-1.55-3.27-3.08-4.9-4.63ZM298.63,73.03c-2.82-.02-5.64-.04-8.46-.06-.11-.07-.17-.2-.16-.33,0-.14.13-.23.16-.26.24-.2,1.33-1.23,2.84-2.67,0,0,0,0,0,0h0c.91-.01,1.81-.02,2.71-.03,0,0,.02.01.02.02,0,0,.02.01.02.02.96.88,1.91,1.76,2.86,2.63.13.08.21.22.19.38-.02.2-.19.29-.2.3Z"/><rect class="cls-2" x="288.55" y="65.34" width="11.97" height="1.71"/><path class="cls-2" d="M306.14,63.75v2.74l-11.39-4.09s-.09-.06-.18-.08c-.16-.03-.28.06-.3.08-3.74,1.55-7.48,3.1-11.22,4.65-.02-1.14-.03-2.28-.05-3.42,5.1-2.01,8.83-3.47,9.96-3.97.2-.09.79-.36,1.57-.34.68.02,1.19.23,1.46.37,3.38,1.36,6.77,2.71,10.15,4.07Z"/><path class="cls-2" d="M295.73,69.67c-.61,0-1.21.02-1.82.03-.3,0-.6,0-.9.01,0,0,0,0,0,0h0c.91-.01,1.81-.02,2.71-.03Z"/><path class="cls-2" d="M295.78,69.72h-2.77s0,0,0,0h0c.91-.01,1.81-.02,2.71-.03,0,0,.02.01.02.02,0,0,.02.01.02.02Z"/><path class="cls-2" d="M295.76,69.7c-.61,0-1.23,0-1.84,0-.3,0-.59,0-.89,0h0c.91-.01,1.81-.02,2.71-.03,0,0,.02.01.02.02Z"/><path class="cls-2" d="M320.81,70.67c-1.02-.06-2.04-.13-3.06-.18v5.19h-3.87v-4.16c-.7,1.17-1.39,2.34-2.08,3.52-.03.06-.1.22-.28.35-.19.13-.39.14-.46.14-.44,0-.87,0-1.31,0-.05-.03-.1-.07-.15-.13-.15-.16-.18-.36-.18-.44v-1.8c-.01-.18-.01-.45.07-.76.06-.22.15-.4.22-.53,1.33-2.26,2.65-4.52,3.97-6.78h-3.45v-1.99h10.19v1.99h-2.68v.84c1.17,1.12,2.34,2.25,3.51,3.37.03.05.25.35.15.74-.12.46-.56.62-.59.63Z"/><polygon class="cls-2" points="333.21 73.6 333.21 75.67 319.82 75.67 319.82 73.6 324.57 73.6 324.57 67.16 321.21 67.16 321.21 65.09 324.57 65.09 324.57 59.31 328.46 59.31 328.46 65.09 332.01 65.09 332.01 67.16 328.46 67.16 328.46 73.6 333.21 73.6"/><rect class="cls-2" x="310.52" y="59.31" width="9.91" height="2.07"/><path class="cls-1" d="M117.43,14.17v4.92h9.85v28.28h7.51v-28.28h9.91v-4.92h-27.28Z"/><path class="cls-1" d="M167.82,27.13c-.26-.04-2.01-.67-2.72-.94-2.94-.97-3.79-2.39-3.79-4.06,0-1.87,1.89-3.51,5.38-3.51,2.78,0,5.23.52,7.95,2.04v-5.82c-1.91-.71-4.95-1.26-8.22-1.26-7.83,0-12.24,3.84-12.24,8.66,0,4.18,2.94,7.16,8.92,9.07,3.76,1.24,7.57,2.65,7.57,6.24,0,3.97-3.22,5.42-6.38,5.42-3.32,0-6.58-.71-9.95-2.88v6.09c2.82,1.28,6.14,1.79,9.73,1.79,8.78,0,14.17-4.26,14.17-10.46,0-5.63-4.75-8.51-10.41-10.38Z"/><path class="cls-1" d="M209.56,14.21v21.93c0,3.68-1.95,6.87-7.83,6.87s-7.85-3.11-7.85-6.87V14.21h-7.23v22.18c0,6.81,5.23,11.62,15.08,11.62s15.08-4.81,15.08-11.62V14.21h-7.25Z"/><path class="cls-1" d="M234.51,37.48l.09,9.9h-7.29V14.21h7.29l-.16,14.57,13.33-14.57h8.67c-7.31,7.76-14.62,15.51-21.93,23.27Z"/><path class="cls-1" d="M256.56,47.38h-8.82c-2.87-3.69-5.73-7.36-8.6-11.04,1.55-1.64,3.1-3.29,4.65-4.93,4.26,5.32,8.51,10.64,12.77,15.97Z"/><path class="cls-1" d="M282.74,14.17h-7.01l-13.45,33.21h7.67l2.94-7.84h10.85c-.54-1.55-1.09-3.11-1.63-4.68h-7.53l1.19-3.59c.93-3.02,3.44-10.61,3.44-10.61,0,0,2.56,7.56,3.54,10.69l1.09,3.51h.04c.58,1.56,1.13,3.13,1.69,4.68h-.04l2.94,7.84h7.67l-13.39-33.21Z"/><path class="cls-1" d="M316.07,27.13c-.28-.04-2.03-.67-2.72-.94-2.94-.97-3.81-2.39-3.81-4.06,0-1.87,1.91-3.51,5.38-3.51,2.78,0,5.23.52,7.97,2.04v-5.82c-1.91-.71-4.97-1.26-8.22-1.26-7.85,0-12.26,3.84-12.26,8.66,0,4.18,2.94,7.16,8.92,9.07,3.77,1.24,7.57,2.65,7.57,6.24,0,3.97-3.2,5.42-6.36,5.42-3.32,0-6.6-.71-9.97-2.88v6.09c2.84,1.28,6.16,1.79,9.75,1.79,8.76,0,14.14-4.26,14.14-10.46,0-5.63-4.73-8.51-10.39-10.38Z"/><path class="cls-1" d="M352.71,14.17h-7.03l-13.45,33.21h7.67l2.94-7.84h10.81c-.54-1.56-1.09-3.11-1.63-4.68h-7.49l1.21-3.59c.91-3.02,3.42-10.61,3.42-10.61,0,0,2.56,7.56,3.56,10.69l1.07,3.51c.58,1.56,1.13,3.11,1.69,4.68l2.94,7.84h7.69l-13.39-33.21Z"/></svg>