<?xml version="1.0" encoding="UTF-8" standalone="no"?>
<!DOCTYPE svg PUBLIC "-//W3C//DTD SVG 1.1//EN" "http://www.w3.org/Graphics/SVG/1.1/DTD/svg11.dtd">
<svg xmlns="http://www.w3.org/2000/svg" version="1.1" viewBox="0.00 0.00 1486.00 216.00">
<path fill="#fefefe" d="
  M 366.75 57.23
  C 361.81 57.33 362.43 62.39 361.00 65.62
  C 359.97 67.93 360.11 70.08 359.38 72.36
  C 357.20 79.17 355.81 86.18 353.88 92.73
  A 3.06 3.06 0.0 0 1 350.96 94.93
  L 332.00 95.04
  A 1.05 1.04 -89.0 0 1 330.95 93.94
  C 331.15 89.78 332.21 86.63 333.08 82.61
  C 333.58 80.26 334.69 77.87 335.08 75.24
  Q 335.39 73.09 336.22 70.91
  C 337.02 68.79 337.22 66.42 337.86 64.39
  C 338.78 61.48 339.40 58.10 340.09 55.56
  Q 344.13 40.82 347.98 26.03
  C 348.41 24.34 349.65 20.99 350.02 18.36
  C 350.42 15.47 351.65 13.23 352.06 10.32
  C 352.57 6.78 353.79 5.87 357.25 5.94
  Q 385.30 6.43 413.73 5.99
  Q 415.21 5.97 414.84 7.40
  L 411.75 19.44
  A 0.84 0.82 82.9 0 1 411.37 19.94
  Q 409.58 21.00 407.50 21.00
  Q 393.25 20.98 379.00 21.03
  C 373.64 21.05 371.90 23.27 370.84 28.43
  C 370.20 31.58 365.92 41.91 372.75 41.96
  Q 386.11 42.06 400.09 42.02
  Q 402.09 42.01 401.61 43.95
  L 398.68 55.86
  A 1.40 1.39 6.7 0 1 397.34 56.91
  Q 382.10 56.92 366.75 57.23
  Z
  M 362.82 44.83
  L 369.28 19.04
  A 2.50 2.47 -83.1 0 1 371.67 17.15
  L 405.49 16.98
  Q 408.94 16.96 409.00 13.51
  L 409.02 12.51
  A 2.53 2.53 0.0 0 0 406.54 9.94
  Q 381.71 9.52 359.76 10.27
  C 355.25 10.43 354.20 15.50 353.74 18.92
  C 353.41 21.36 352.40 23.67 351.89 26.14
  Q 351.33 28.86 350.90 30.28
  C 349.08 36.33 347.66 42.54 345.67 48.51
  C 344.82 51.05 344.57 53.64 343.71 56.25
  C 342.87 58.79 342.79 61.24 341.85 63.83
  C 340.91 66.44 340.90 69.01 339.87 71.62
  Q 339.23 73.24 338.86 74.95
  C 337.75 80.05 336.47 84.06 336.99 89.50
  A 1.30 1.30 0.0 0 0 338.09 90.66
  C 341.81 91.21 350.40 92.43 351.66 87.38
  Q 355.18 73.17 358.84 58.99
  C 359.27 57.35 360.09 55.75 360.75 54.27
  A 2.09 2.07 12.0 0 1 362.65 53.05
  L 393.42 53.03
  Q 396.12 53.03 396.12 50.33
  L 396.12 48.83
  Q 396.13 46.03 393.33 46.03
  L 363.71 45.97
  Q 362.53 45.97 362.82 44.83
  Z"
/>
<path fill="#fefefe" d="
  M 456.16 55.18
  C 456.96 53.09 456.88 50.64 457.63 48.49
  C 459.85 42.09 461.03 35.23 462.87 28.70
  Q 465.84 18.22 468.51 8.32
  A 3.19 3.18 7.8 0 1 471.61 5.97
  L 490.99 6.08
  Q 492.09 6.09 491.88 7.17
  C 490.69 13.10 489.26 19.11 487.78 25.11
  Q 485.44 34.65 482.64 44.07
  C 481.37 48.32 480.30 52.78 478.81 56.95
  C 477.90 59.53 477.83 62.23 476.94 64.63
  C 472.74 75.95 468.57 82.36 460.10 89.15
  C 456.55 92.00 452.23 93.22 447.92 94.62
  Q 444.42 95.77 440.43 95.93
  C 431.29 96.32 423.90 96.90 415.86 91.96
  C 405.77 85.76 404.42 73.01 407.08 62.50
  Q 407.31 61.56 408.17 57.45
  C 408.66 55.10 409.61 53.15 409.99 50.79
  C 410.48 47.78 411.66 44.47 412.25 42.05
  Q 416.38 24.97 421.49 7.34
  A 1.88 1.87 8.0 0 1 423.29 5.99
  L 443.95 6.03
  Q 444.78 6.03 444.70 6.85
  Q 444.36 10.53 443.25 14.31
  C 440.65 23.18 438.32 32.13 435.72 41.00
  C 434.99 43.50 434.83 45.94 433.97 48.41
  C 432.36 53.00 431.52 58.37 430.15 63.26
  Q 427.93 71.23 429.10 76.78
  Q 430.04 81.17 435.26 81.41
  Q 443.07 81.76 447.70 76.43
  C 451.38 72.21 452.42 68.38 454.06 63.56
  C 454.97 60.89 455.06 58.06 456.16 55.18
  Z
  M 432.62 84.91
  C 422.79 83.17 423.99 72.12 425.76 65.04
  C 427.70 57.30 430.02 48.58 431.72 41.89
  Q 433.40 35.27 435.34 28.72
  C 435.94 26.73 436.18 24.77 436.88 22.82
  Q 438.76 17.60 438.99 12.03
  A 1.75 1.75 0.0 0 0 437.46 10.22
  Q 432.58 9.60 427.38 10.14
  C 422.80 10.61 422.16 19.64 420.78 23.15
  C 419.71 25.84 419.89 28.26 418.77 31.12
  C 417.91 33.32 418.06 35.52 417.40 37.69
  C 415.34 44.42 413.68 51.19 411.90 58.00
  Q 409.74 66.24 409.66 74.73
  C 409.57 83.73 417.24 90.76 425.73 92.02
  Q 431.09 92.82 442.12 92.13
  C 453.93 91.40 466.28 81.58 470.61 70.87
  Q 474.05 62.35 475.85 54.62
  Q 477.42 47.92 482.12 32.06
  C 482.87 29.52 483.17 26.47 484.11 23.68
  C 484.85 21.48 484.99 19.01 485.90 16.79
  Q 487.01 14.08 486.89 13.06
  C 486.36 8.68 475.97 9.36 473.42 10.96
  Q 471.14 12.40 470.40 15.26
  Q 467.83 25.16 466.12 30.86
  C 465.31 33.55 464.92 36.73 463.94 39.61
  C 463.19 41.82 463.09 44.10 462.39 46.32
  Q 461.15 50.26 460.92 51.27
  Q 458.65 61.43 455.10 71.22
  C 453.74 74.97 451.96 76.87 449.06 79.69
  C 444.35 84.27 439.24 86.08 432.62 84.91
  Z"
/>
<path fill="#fefefe" d="
  M 483.16 79.97
  C 482.62 75.68 481.78 61.29 488.72 61.06
  Q 498.03 60.75 507.30 61.07
  A 0.80 0.80 0.0 0 1 508.07 61.85
  C 508.22 67.00 505.63 70.30 505.87 75.90
  Q 505.98 78.50 507.24 79.80
  C 511.02 83.71 516.67 79.25 518.44 75.69
  Q 519.04 74.50 520.44 69.47
  C 526.09 49.17 531.33 28.61 536.54 8.33
  A 3.17 3.16 -82.5 0 1 539.63 5.95
  L 559.46 6.11
  Q 560.20 6.12 560.13 6.85
  C 559.70 11.21 557.98 15.85 557.16 19.06
  C 556.03 23.46 555.06 27.79 553.71 32.23
  C 552.26 37.05 551.62 42.26 550.16 47.06
  C 545.96 60.80 545.32 70.78 537.57 81.86
  C 529.19 93.84 514.24 97.74 500.46 95.90
  C 497.85 95.55 495.55 94.18 493.00 93.28
  C 490.11 92.27 486.14 88.23 484.89 84.87
  C 484.26 83.19 483.39 81.73 483.16 79.97
  Z
  M 501.99 81.39
  C 500.55 76.94 502.65 71.75 501.77 67.00
  A 0.86 0.86 0.0 0 0 501.07 66.31
  Q 495.87 65.42 490.60 65.93
  Q 487.29 66.25 487.06 69.63
  C 486.73 74.32 486.12 80.40 488.47 84.51
  C 493.56 93.44 504.72 92.80 514.49 92.06
  C 516.89 91.88 519.03 90.92 521.34 90.19
  C 531.07 87.11 538.18 76.83 540.81 67.42
  C 541.70 64.24 542.71 61.62 543.22 58.33
  C 543.58 55.96 544.75 53.83 545.12 51.27
  Q 545.43 49.08 546.06 47.34
  C 546.93 44.94 547.51 41.67 547.97 39.91
  Q 551.20 27.57 554.62 15.28
  C 556.34 9.11 549.64 9.89 545.74 9.96
  C 536.88 10.11 538.79 16.92 536.77 22.78
  C 536.10 24.75 535.97 26.83 535.28 28.79
  C 534.19 31.90 533.87 34.38 533.19 36.99
  Q 528.50 55.00 523.42 72.86
  Q 521.77 78.64 519.62 80.97
  C 516.04 84.86 509.85 86.43 504.80 84.36
  Q 502.67 83.48 501.99 81.39
  Z"
/>
<path fill="#fefefe" d="
  M 550.29 91.39
  C 553.35 79.09 557.18 65.95 561.38 48.70
  Q 562.00 46.15 564.02 38.89
  C 565.24 34.53 566.15 29.98 567.44 25.76
  Q 569.86 17.91 571.86 9.93
  Q 572.27 8.28 572.78 7.11
  A 1.90 1.90 0.0 0 1 574.54 5.96
  L 595.19 6.11
  Q 596.21 6.11 595.97 7.10
  C 594.95 11.27 593.75 15.38 592.78 19.56
  Q 589.79 32.43 585.89 45.06
  C 583.77 51.92 582.02 59.22 580.43 66.23
  C 579.81 68.99 579.15 72.45 578.20 75.09
  C 576.39 80.08 575.56 85.63 574.02 90.76
  Q 573.60 92.17 572.80 93.38
  A 1.58 1.53 -82.0 0 1 572.03 93.98
  C 567.02 95.70 560.04 95.07 554.75 95.04
  Q 552.15 95.03 549.75 94.06
  Q 549.30 93.88 549.44 93.41
  C 549.67 92.70 550.12 92.09 550.29 91.39
  Z
  M 576.87 64.87
  Q 580.45 48.55 587.10 26.70
  C 587.83 24.28 588.23 21.42 589.05 18.79
  Q 590.24 14.96 590.07 13.58
  C 589.45 8.71 581.83 9.77 578.26 10.11
  C 575.41 10.38 574.72 13.75 573.79 16.41
  C 572.50 20.06 571.87 24.13 570.68 27.97
  C 570.08 29.88 569.90 32.14 569.19 34.16
  Q 568.37 36.54 568.01 38.71
  C 567.59 41.25 566.56 43.65 566.05 45.79
  C 564.70 51.45 563.11 57.05 561.86 62.73
  C 561.13 66.01 559.74 69.88 559.08 72.44
  Q 557.48 78.73 555.60 84.94
  C 554.75 87.76 554.75 90.32 558.17 90.88
  C 560.52 91.27 565.75 91.54 568.21 90.37
  C 570.67 89.19 572.51 82.55 573.02 79.90
  C 573.57 77.03 574.87 74.92 575.18 71.75
  C 575.39 69.56 576.32 67.39 576.87 64.87
  Z"
/>
<path fill="#fefefe" d="
  M 628.41 40.97
  C 630.65 40.01 632.02 38.99 632.89 36.54
  Q 634.33 32.46 636.10 28.54
  Q 640.34 19.09 645.07 8.09
  A 3.48 3.47 -78.2 0 1 648.28 5.98
  L 662.74 6.02
  Q 663.83 6.03 663.90 7.11
  C 664.54 17.27 661.51 27.03 662.03 37.24
  Q 662.14 39.23 663.48 40.61
  Q 663.84 40.98 663.79 41.49
  L 663.69 42.50
  Q 663.58 43.65 664.13 42.63
  L 665.02 40.98
  Q 665.26 40.55 665.68 40.31
  Q 667.90 39.04 668.39 37.88
  Q 672.18 29.01 676.21 20.26
  C 677.99 16.38 679.54 11.80 681.38 7.65
  A 2.83 2.83 0.0 0 1 683.96 5.98
  L 705.26 6.05
  A 0.68 0.67 10.1 0 1 705.89 6.95
  C 704.48 10.90 702.21 15.13 700.83 18.39
  C 695.05 32.00 688.52 45.27 682.43 58.68
  Q 678.62 67.09 674.55 75.38
  C 671.70 81.21 669.47 87.52 666.70 93.29
  Q 666.48 93.74 666.01 93.93
  C 660.66 96.05 651.07 95.02 645.25 94.82
  Q 643.39 94.76 641.90 94.23
  A 1.37 1.36 -77.0 0 1 641.00 92.78
  Q 642.90 77.04 644.04 61.75
  Q 644.17 60.09 642.29 58.39
  Q 641.99 58.12 641.60 58.24
  Q 638.17 59.29 637.14 61.98
  Q 633.95 70.34 630.09 78.39
  C 627.82 83.12 626.04 88.32 623.75 93.21
  A 1.74 1.72 -84.8 0 1 622.65 94.14
  C 616.48 95.83 608.44 95.05 601.63 94.91
  Q 599.44 94.86 599.13 92.69
  Q 598.84 90.65 598.95 87.25
  C 599.24 77.69 600.42 67.58 600.80 58.76
  C 601.04 53.14 601.10 47.91 601.85 42.10
  Q 603.26 31.23 603.15 20.25
  Q 603.08 13.27 605.13 6.65
  Q 605.34 5.98 606.04 5.98
  L 626.73 6.06
  Q 627.74 6.06 627.85 7.07
  Q 628.47 12.78 627.36 18.53
  Q 626.04 25.33 625.93 27.06
  C 625.71 30.72 625.08 38.23 627.71 40.83
  Q 628.01 41.14 628.41 40.97
  Z
  M 618.09 77.10
  C 617.69 72.08 618.19 68.32 619.20 62.30
  C 620.40 55.14 619.96 47.68 621.02 40.17
  C 621.97 33.50 621.31 26.58 622.69 20.16
  C 623.48 16.51 626.25 10.73 620.03 10.15
  C 616.20 9.80 607.29 8.75 607.21 14.75
  C 606.99 31.06 605.52 45.09 604.76 60.33
  C 604.37 68.25 603.38 76.75 602.92 84.99
  Q 602.78 87.53 603.87 89.76
  Q 604.10 90.21 604.58 90.38
  C 608.11 91.59 611.99 91.08 617.49 90.76
  C 620.08 90.62 622.21 87.33 623.58 84.33
  C 631.34 67.43 638.43 50.25 646.19 33.35
  C 647.37 30.77 649.01 26.10 651.06 22.65
  A 0.19 0.19 0.0 0 1 651.41 22.70
  C 652.16 25.45 650.78 31.19 650.53 34.25
  C 649.48 47.43 647.76 60.57 646.97 73.75
  Q 646.61 79.76 646.12 85.76
  Q 645.69 91.00 650.99 91.05
  C 660.06 91.15 662.75 92.44 666.89 83.73
  Q 672.35 72.25 677.64 60.70
  C 678.91 57.94 680.38 55.10 681.50 52.31
  C 684.99 43.53 689.77 34.88 692.53 28.24
  Q 695.20 21.82 697.72 17.26
  C 702.20 9.14 692.94 9.23 687.78 10.09
  C 685.50 10.47 682.96 12.71 682.30 14.57
  C 679.94 21.21 676.32 28.20 674.01 33.85
  Q 668.29 47.87 661.96 61.63
  C 659.46 67.06 657.49 72.10 655.59 77.36
  Q 654.15 81.37 654.05 77.11
  C 653.93 72.14 655.17 66.10 655.50 61.29
  Q 656.47 47.05 658.13 32.88
  C 658.71 28.00 660.33 15.56 658.23 11.43
  Q 658.00 10.98 657.53 10.77
  C 655.12 9.71 650.09 8.97 648.14 11.13
  Q 647.38 11.97 645.86 15.24
  Q 642.81 21.81 639.95 28.47
  C 632.96 44.71 625.58 60.68 618.87 77.22
  Q 618.23 78.82 618.09 77.10
  Z
  M 662.51 44.02
  Q 661.90 44.81 662.15 45.78
  A 0.37 0.36 -38.0 0 0 662.82 45.86
  Q 663.38 44.88 663.09 44.11
  Q 662.88 43.54 662.51 44.02
  Z"
/>
<path fill="#fefefe" d="
  M 695.37 76.30
  Q 698.27 70.99 701.51 65.88
  Q 702.66 64.09 703.64 62.20
  Q 705.05 59.52 705.66 58.48
  Q 719.19 35.42 732.63 12.30
  Q 734.38 9.29 736.27 6.58
  A 1.25 1.24 17.0 0 1 737.30 6.04
  Q 748.36 5.92 759.50 6.07
  C 762.70 6.11 764.87 6.35 764.84 10.25
  C 764.74 23.28 766.47 40.13 767.02 50.23
  Q 768.06 69.46 769.15 88.69
  C 769.30 91.29 771.00 94.19 766.65 94.65
  Q 755.50 95.80 746.74 94.58
  Q 744.12 94.21 744.09 91.27
  Q 744.01 84.49 743.91 77.75
  C 743.85 74.34 741.43 74.17 738.75 74.10
  Q 731.62 73.92 724.49 73.99
  Q 721.21 74.03 719.62 76.91
  Q 715.24 84.85 711.33 93.04
  Q 710.43 94.92 706.88 94.96
  Q 697.06 95.06 686.51 94.93
  A 1.23 1.23 0.0 0 1 685.41 93.18
  Q 686.07 91.75 687.32 89.83
  Q 691.60 83.21 695.37 76.30
  Z
  M 722.12 70.12
  Q 733.81 69.83 745.89 70.31
  Q 748.00 70.39 748.00 72.51
  L 748.01 86.74
  Q 748.01 90.76 752.03 90.94
  Q 756.63 91.16 761.52 90.89
  Q 765.25 90.69 764.89 86.75
  C 764.02 77.31 763.78 65.80 763.32 58.43
  Q 762.42 44.05 761.35 29.68
  C 760.94 24.22 760.97 18.50 760.76 12.92
  A 2.87 2.86 -89.7 0 0 758.04 10.16
  Q 749.99 9.75 742.59 9.89
  C 738.53 9.97 737.01 11.66 735.15 14.89
  Q 721.39 38.72 707.40 62.41
  C 703.03 69.83 698.83 77.33 694.62 84.84
  Q 693.39 87.05 694.16 89.69
  Q 694.30 90.17 694.76 90.38
  C 697.10 91.43 705.27 91.64 707.42 90.15
  Q 708.92 89.10 709.70 87.69
  Q 713.49 80.84 717.14 73.92
  Q 719.11 70.20 722.12 70.12
  Z"
/>
<path fill="#fefefe" d="
  M 846.14 87.12
  L 846.43 86.26
  Q 846.57 85.82 847.01 85.67
  C 848.59 85.11 849.84 84.71 850.85 83.25
  C 855.68 76.17 859.89 67.60 863.76 61.26
  Q 868.50 53.51 873.01 45.62
  C 880.38 32.71 887.93 20.40 895.00 7.62
  A 3.17 3.16 -75.4 0 1 897.79 5.98
  L 922.73 6.07
  A 1.23 1.23 0.0 0 1 923.96 7.26
  C 924.32 18.49 926.18 28.00 926.06 40.80
  C 926.00 47.35 926.62 53.24 927.25 59.52
  C 928.14 68.41 927.92 77.11 928.12 86.00
  Q 928.19 89.04 928.76 92.02
  Q 929.24 94.50 926.63 94.68
  Q 916.43 95.38 906.42 94.80
  A 1.39 1.38 -89.1 0 1 905.12 93.45
  Q 904.90 85.07 903.73 76.48
  Q 903.37 73.90 899.75 73.88
  C 894.20 73.84 887.71 73.52 882.25 74.38
  Q 881.74 74.46 881.39 74.83
  C 877.45 78.94 875.48 84.52 872.10 90.82
  Q 870.07 94.60 866.00 94.81
  Q 856.97 95.27 847.97 94.76
  Q 842.70 94.46 837.29 94.81
  Q 828.57 95.36 820.50 94.84
  Q 819.01 94.74 817.46 93.91
  A 0.68 0.67 23.3 0 1 817.14 93.12
  C 817.48 91.97 818.14 90.94 818.41 89.86
  C 819.59 85.19 826.22 63.51 821.50 60.74
  C 819.51 59.57 815.09 59.91 812.78 59.96
  C 809.06 60.04 806.38 59.70 806.04 64.00
  C 805.79 67.03 804.51 70.61 804.03 72.65
  Q 801.90 81.73 799.58 90.76
  C 798.66 94.31 795.51 95.11 791.75 95.10
  Q 784.35 95.07 776.78 94.93
  A 1.56 1.55 4.5 0 1 775.27 93.17
  Q 775.62 90.53 776.59 87.28
  C 778.68 80.27 780.35 73.13 782.42 66.11
  C 783.09 63.87 783.12 61.77 783.97 59.52
  C 784.96 56.88 785.04 54.17 785.97 51.57
  C 786.87 49.04 787.47 45.72 787.97 43.82
  Q 790.63 33.73 793.30 23.66
  C 794.03 20.90 795.52 16.68 796.22 13.05
  C 796.61 10.98 797.81 9.24 798.04 7.06
  A 1.27 1.27 0.0 0 1 799.34 5.92
  Q 818.48 6.36 837.75 6.03
  C 844.56 5.92 851.84 10.15 855.51 15.24
  C 860.73 22.47 857.70 33.15 854.36 40.27
  C 852.16 44.96 848.60 48.34 844.78 51.52
  A 2.68 2.68 0.0 0 0 843.87 54.10
  C 844.55 57.41 846.91 60.02 847.13 63.49
  Q 847.67 71.95 845.18 80.50
  C 844.50 82.84 845.84 84.66 845.75 87.05
  Q 845.71 88.39 846.14 87.12
  Z
  M 833.25 52.37
  C 838.11 50.04 841.97 50.32 845.90 46.19
  C 852.20 39.57 855.30 31.06 854.16 21.73
  C 853.12 13.25 843.44 10.57 836.24 10.16
  Q 819.87 9.21 803.49 10.03
  Q 801.05 10.15 800.57 11.80
  Q 797.91 20.89 795.35 30.01
  C 794.94 31.45 794.78 33.36 794.17 34.99
  C 793.03 38.07 792.88 40.90 791.84 43.88
  C 791.06 46.09 791.00 48.30 790.33 50.52
  C 787.55 59.66 785.46 69.03 782.91 78.25
  Q 781.71 82.58 780.83 86.96
  Q 780.10 90.63 783.48 90.93
  Q 788.18 91.36 792.86 90.86
  C 796.31 90.49 797.86 83.21 798.21 80.81
  C 798.57 78.24 799.62 76.31 800.05 73.79
  Q 800.58 70.68 801.27 68.58
  C 802.02 66.28 802.33 63.92 803.10 61.66
  C 803.59 60.21 803.99 57.47 804.98 56.47
  C 807.47 53.96 817.04 55.18 820.26 55.94
  C 831.65 58.62 826.08 73.92 824.56 80.84
  C 823.84 84.09 820.53 90.23 826.51 90.93
  Q 829.21 91.25 835.01 90.82
  C 839.30 90.50 840.47 85.50 841.07 82.07
  Q 841.91 77.29 842.14 76.27
  C 843.17 71.58 844.14 63.14 841.83 58.78
  C 839.91 55.15 836.39 54.77 833.24 53.09
  Q 832.53 52.71 833.25 52.37
  Z
  M 906.65 70.55
  Q 907.93 70.96 907.97 72.31
  Q 908.24 79.89 908.96 87.26
  Q 909.27 90.44 912.74 90.84
  Q 917.52 91.40 922.03 90.56
  A 1.99 1.98 89.6 0 0 923.63 88.93
  Q 924.07 86.20 924.09 83.50
  Q 924.18 71.92 923.16 60.40
  Q 922.35 51.26 922.17 46.59
  C 921.86 38.83 921.85 30.99 920.99 23.29
  Q 920.46 18.60 919.91 13.89
  C 919.48 10.12 917.96 10.27 914.76 10.07
  Q 908.54 9.68 902.28 9.91
  C 899.55 10.01 897.48 10.98 896.15 13.23
  Q 892.03 20.17 887.89 27.09
  C 876.23 46.59 865.27 66.54 853.50 85.96
  C 849.89 91.92 861.49 91.13 863.78 91.06
  C 874.30 90.70 872.83 70.67 882.72 70.04
  Q 887.56 69.72 905.23 70.41
  Q 906.39 70.46 906.65 70.55
  Z"
/>
<path fill="#fefefe" d="
  M 190.58 95.90
  A 2.04 2.03 -8.9 0 0 189.09 97.93
  C 189.20 101.32 187.58 104.37 184.55 106.13
  C 179.38 109.14 179.26 109.49 180.33 115.55
  C 180.75 117.92 180.16 119.61 179.64 121.83
  C 179.30 123.23 178.32 124.57 178.28 126.50
  Q 177.81 145.62 177.80 157.75
  C 177.80 159.01 176.16 160.34 175.99 161.82
  Q 175.67 164.53 178.52 165.51
  Q 186.54 168.29 192.09 174.70
  Q 193.33 176.13 194.58 180.56
  Q 196.59 187.70 191.47 192.18
  Q 188.26 194.99 183.84 195.65
  C 180.89 196.10 177.74 194.77 174.63 194.36
  Q 159.00 192.33 143.25 192.09
  Q 121.64 191.77 100.25 197.76
  Q 94.55 199.35 90.05 195.49
  C 85.35 191.45 75.05 178.70 81.03 172.43
  C 82.30 171.10 84.22 170.97 85.89 170.52
  A 2.87 2.86 82.9 0 0 88.02 167.77
  Q 88.20 150.72 86.70 133.50
  Q 86.37 129.77 84.33 124.92
  C 83.37 122.61 83.59 119.83 85.63 118.03
  C 88.95 115.09 94.95 116.00 99.10 115.97
  C 102.11 115.94 104.90 113.30 102.03 110.46
  C 98.78 107.24 95.40 104.81 94.65 99.69
  Q 94.58 99.18 94.21 98.82
  C 92.31 97.00 94.65 93.23 95.51 91.25
  Q 95.71 90.81 96.13 90.59
  C 99.95 88.65 104.06 89.48 107.67 89.69
  C 111.16 89.90 114.27 87.99 118.05 87.92
  A 1.94 1.94 0.0 0 0 119.95 86.16
  C 120.23 82.91 121.16 77.36 116.25 77.18
  Q 109.25 76.93 102.25 76.80
  Q 97.13 76.70 94.66 79.88
  C 90.40 85.37 86.27 91.27 82.20 96.49
  Q 74.58 106.25 67.24 116.23
  C 65.61 118.44 61.91 118.75 58.00 118.80
  Q 32.50 119.11 6.92 118.99
  Q 4.99 118.98 6.23 117.50
  C 10.47 112.46 15.89 108.11 20.98 103.73
  C 26.09 99.33 31.70 93.89 37.29 89.18
  C 44.72 82.90 52.22 75.51 58.50 70.05
  Q 74.22 56.39 89.72 42.48
  C 100.89 32.45 112.48 22.83 123.23 12.40
  A 1.90 1.89 -44.2 0 1 125.89 12.43
  C 129.93 16.55 132.97 22.54 137.71 26.05
  A 1.74 1.73 37.0 0 0 140.13 25.71
  L 150.05 12.57
  Q 151.06 11.23 152.39 12.26
  C 158.58 17.06 165.25 23.58 170.03 27.75
  Q 182.33 38.48 201.75 56.25
  C 211.20 64.89 224.86 76.50 236.31 86.82
  Q 252.66 101.55 269.19 116.09
  Q 270.30 117.07 270.12 117.74
  Q 269.77 118.98 268.49 118.98
  Q 243.04 119.06 217.75 118.98
  C 214.00 118.97 211.20 118.95 208.80 115.73
  Q 201.73 106.28 194.39 97.08
  Q 192.93 95.26 190.58 95.90
  Z
  M 153.67 38.11
  Q 154.75 39.70 156.97 42.50
  C 166.65 54.71 176.01 67.12 185.48 79.48
  Q 197.81 95.57 210.31 111.53
  C 211.30 112.79 212.04 113.89 213.75 114.01
  Q 217.42 114.28 224.50 114.17
  Q 239.37 113.93 253.91 114.03
  A 2.35 2.34 -89.1 0 0 256.27 111.73
  C 256.30 110.13 255.36 108.54 254.02 107.46
  C 249.28 103.64 244.16 98.65 240.44 95.40
  Q 213.68 72.06 187.51 48.07
  Q 184.68 45.48 179.45 41.00
  C 173.92 36.26 168.45 30.85 163.20 26.54
  Q 158.94 23.04 154.64 19.58
  C 151.59 17.11 148.52 20.40 146.74 23.03
  Q 142.99 28.55 138.63 32.80
  Q 137.87 33.54 137.21 32.71
  Q 132.34 26.63 127.92 20.91
  C 126.03 18.46 124.01 16.63 121.26 19.24
  C 115.32 24.89 107.99 30.91 102.33 36.04
  Q 75.94 59.99 49.03 83.37
  C 46.44 85.63 43.73 88.73 41.57 90.58
  Q 30.43 100.10 26.36 103.86
  C 24.23 105.83 20.23 108.02 19.67 110.96
  Q 19.59 111.40 19.85 111.75
  Q 21.53 113.97 23.25 113.97
  Q 41.50 114.07 59.75 114.15
  C 62.00 114.16 63.61 114.11 65.24 112.37
  C 67.62 109.84 69.59 106.61 71.56 104.24
  Q 74.28 100.97 76.81 97.56
  Q 83.88 88.04 91.15 78.69
  Q 104.23 61.86 117.28 45.00
  Q 120.39 40.98 123.18 37.46
  Q 124.01 36.41 124.82 37.47
  L 129.26 43.24
  A 2.00 1.99 -47.2 0 1 129.34 45.55
  C 126.45 49.97 122.70 53.91 119.64 58.22
  Q 116.92 62.05 112.91 66.99
  Q 110.87 69.50 112.52 71.35
  C 114.44 73.52 119.34 73.39 122.02 73.05
  C 123.83 72.82 125.16 71.79 126.19 70.43
  Q 131.41 63.55 137.00 56.44
  Q 137.51 55.78 138.31 56.01
  Q 138.89 56.18 139.66 57.09
  Q 144.89 63.30 149.51 69.95
  C 152.47 74.21 157.30 73.40 162.65 72.82
  A 1.07 1.07 0.0 0 0 163.44 72.34
  C 164.77 70.34 164.22 68.29 162.77 66.30
  Q 155.30 56.06 146.77 45.73
  Q 145.56 44.25 146.85 42.86
  L 151.44 37.94
  Q 152.66 36.63 153.67 38.11
  Z
  M 141.37 75.15
  Q 144.51 75.14 145.30 73.18
  A 1.91 1.90 -43.5 0 0 145.34 71.87
  Q 143.68 66.75 139.38 64.21
  C 136.56 62.54 133.01 67.02 132.02 69.01
  Q 131.46 70.12 132.33 71.00
  Q 136.45 75.17 141.37 75.15
  Z
  M 174.58 77.05
  A 2.27 2.27 0.0 0 0 173.27 80.92
  L 174.84 82.46
  A 2.27 2.27 0.0 0 0 176.52 83.11
  L 178.06 83.06
  A 2.27 2.27 0.0 0 0 180.22 80.43
  L 179.93 78.59
  A 2.27 2.27 0.0 0 0 177.41 76.70
  L 174.58 77.05
  Z
  M 162.4554 80.1184
  A 5.77 3.71 -2.3 0 0 156.5411 76.6430
  A 5.77 3.71 -2.3 0 0 150.9246 80.5816
  A 5.77 3.71 -2.3 0 0 156.8389 84.0570
  A 5.77 3.71 -2.3 0 0 162.4554 80.1184
  Z
  M 137.95 107.97
  C 139.93 103.86 146.54 103.09 150.50 103.05
  Q 161.13 102.93 171.75 103.03
  C 175.53 103.07 183.99 106.00 185.02 98.98
  C 185.51 95.72 185.02 93.98 182.37 91.82
  Q 178.27 88.46 173.55 85.98
  C 171.95 85.15 170.57 83.96 168.88 85.63
  C 167.46 87.04 166.97 87.76 164.81 87.90
  Q 159.60 88.24 154.29 89.07
  A 2.71 2.70 68.9 0 1 151.59 87.87
  C 150.31 85.91 145.38 79.74 142.85 79.35
  C 138.73 78.71 125.66 75.55 124.11 81.86
  A 2.63 2.61 30.2 0 0 124.77 84.31
  L 128.87 88.56
  A 1.50 1.49 59.0 0 1 128.26 91.02
  C 123.64 92.52 118.48 92.01 113.61 92.93
  C 108.62 93.88 104.74 93.97 100.02 94.06
  A 2.03 2.01 -84.8 0 0 98.08 95.69
  C 96.99 101.09 102.29 105.05 105.79 108.40
  C 110.25 112.67 117.06 107.35 119.78 109.36
  A 0.89 0.89 0.0 0 1 119.57 110.90
  Q 116.95 111.93 114.16 112.07
  C 108.15 112.35 111.74 118.04 113.33 120.73
  Q 114.22 122.22 114.14 127.75
  C 114.02 135.17 114.42 143.19 113.45 150.52
  C 113.20 152.38 111.70 154.60 112.29 156.26
  Q 114.11 161.40 117.59 165.07
  A 3.04 3.01 -20.7 0 0 119.68 166.00
  C 129.18 166.31 138.44 165.04 147.87 164.11
  C 150.95 163.81 154.20 163.91 157.34 165.36
  C 162.72 167.83 168.06 170.56 171.49 163.49
  C 172.82 160.75 173.79 157.13 173.78 153.72
  Q 173.75 140.18 174.20 126.64
  C 174.36 122.10 179.82 118.06 175.24 113.61
  C 165.61 104.23 153.96 105.50 142.02 108.81
  Q 140.06 109.36 138.27 108.75
  Q 137.67 108.54 137.95 107.97
  Z
  M 109.84 171.29
  C 107.76 159.62 109.28 145.06 110.36 134.09
  Q 110.89 128.79 110.34 126.94
  C 108.97 122.30 105.93 122.69 102.23 120.77
  C 99.98 119.59 91.70 119.47 89.51 120.73
  C 86.16 122.66 89.08 125.59 89.59 128.15
  C 90.40 132.20 91.74 136.11 91.84 140.19
  Q 92.27 156.62 91.90 173.07
  Q 91.89 173.61 91.39 173.79
  Q 90.79 174.00 90.16 174.06
  C 77.17 175.32 87.60 187.38 90.79 191.47
  C 93.53 195.01 98.65 194.24 102.67 192.82
  C 105.06 191.99 107.66 191.96 110.17 191.13
  Q 112.45 190.38 113.90 190.18
  C 120.31 189.27 127.17 187.70 133.09 187.28
  C 147.59 186.25 160.90 188.13 175.94 190.29
  C 178.48 190.66 182.16 192.84 184.45 191.67
  C 187.61 190.07 190.46 189.76 190.98 185.74
  C 191.74 179.86 190.02 176.86 185.37 173.44
  C 182.54 171.35 177.74 168.42 174.74 168.95
  C 161.63 171.27 148.67 168.99 135.49 169.55
  C 127.14 169.90 118.78 169.59 110.62 171.78
  A 0.63 0.62 -12.7 0 1 109.84 171.29
  Z"
/>
<path fill="#fefefe" d="
  M 837.42 30.52
  C 834.83 37.98 833.19 45.07 824.89 48.10
  C 820.41 49.73 813.36 48.88 807.99 48.93
  A 1.18 1.17 -84.9 0 1 806.83 47.54
  C 807.86 42.07 810.05 36.85 810.98 31.25
  C 811.41 28.68 812.50 26.71 812.93 24.18
  Q 813.53 20.73 815.12 17.90
  A 1.52 1.52 0.0 0 1 816.39 17.13
  Q 822.21 16.90 827.75 17.07
  C 835.05 17.29 839.93 23.27 837.42 30.52
  Z
  M 815.00 44.89
  C 825.43 46.24 829.93 41.87 832.97 32.50
  C 834.44 27.95 835.46 21.39 828.49 21.05
  C 826.21 20.93 818.77 20.13 817.68 22.74
  Q 815.05 28.98 813.21 39.28
  C 812.87 41.20 811.94 44.49 815.00 44.89
  Z"
/>
<path fill="#fefefe" d="
  M 894.35 43.29
  Q 900.40 32.83 905.79 21.98
  A 0.42 0.42 0.0 0 1 906.56 22.00
  Q 906.88 22.75 906.88 23.75
  Q 906.90 37.56 907.20 51.36
  C 907.27 54.62 907.83 58.49 907.90 61.92
  Q 907.94 63.77 906.09 63.78
  L 884.82 63.91
  Q 883.64 63.91 883.80 62.74
  C 883.91 61.90 884.13 60.93 884.64 60.16
  C 887.39 56.00 889.18 51.47 891.87 47.34
  Q 893.17 45.34 894.35 43.29
  Z
  M 900.59 42.52
  A 0.42 0.40 56.3 0 0 900.19 42.43
  C 896.58 43.54 894.16 50.63 892.42 53.82
  C 889.20 59.72 902.59 61.60 902.92 55.50
  C 903.13 51.46 904.05 45.53 900.59 42.52
  Z"
/>
<path fill="#fefefe" d="
  M 733.02 45.97
  Q 738.98 35.77 744.04 25.08
  Q 744.89 23.27 746.37 22.11
  A 0.34 0.33 69.7 0 1 746.91 22.36
  C 747.18 29.57 747.98 37.13 748.04 43.90
  Q 748.12 52.83 747.97 62.09
  A 1.32 1.31 82.9 0 1 747.01 63.33
  Q 746.06 63.59 744.50 63.65
  Q 735.62 64.01 724.75 63.66
  Q 722.80 63.60 723.81 61.94
  C 726.95 56.79 729.87 51.36 733.02 45.97
  Z
  M 741.28 58.68
  C 745.89 57.72 744.04 46.86 742.29 44.47
  Q 741.37 43.22 739.77 43.69
  C 736.52 44.64 733.59 51.43 732.42 54.39
  C 729.93 60.74 738.61 59.24 741.28 58.68
  Z"
/>
<path fill="#fefefe" d="
  M 937.94 204.36
  C 931.50 202.78 925.20 203.44 918.79 204.95
  Q 910.23 206.97 908.62 207.10
  C 894.10 208.27 880.33 198.39 878.58 183.33
  C 877.19 171.33 880.16 159.88 884.49 148.77
  C 888.96 137.29 899.90 123.02 911.71 118.43
  C 913.85 117.59 915.92 116.55 917.86 116.17
  C 932.49 113.30 948.28 115.43 954.81 130.82
  C 956.15 133.97 956.61 138.18 957.69 141.86
  C 958.68 145.25 956.57 151.91 955.96 156.22
  C 955.17 161.91 953.17 169.10 950.64 174.23
  C 949.40 176.76 948.05 178.63 947.83 181.70
  Q 947.79 182.26 948.17 182.67
  L 950.12 184.75
  A 1.97 1.94 -61.9 0 1 950.62 186.43
  C 950.12 189.16 949.83 191.85 949.01 194.50
  Q 947.02 200.99 945.12 207.39
  A 0.55 0.55 0.0 0 1 944.29 207.70
  C 942.17 206.34 940.40 204.96 937.94 204.36
  Z
  M 937.31 188.54
  Q 945.50 179.33 949.33 167.64
  C 949.88 165.97 950.21 163.90 950.81 162.03
  C 953.05 155.12 953.40 145.01 952.94 139.25
  Q 952.34 131.52 947.31 125.70
  Q 942.92 120.62 937.50 119.96
  C 932.45 119.35 921.12 118.74 915.08 121.08
  C 897.31 127.96 884.46 149.88 882.97 168.20
  C 882.67 171.87 882.14 175.77 882.45 179.46
  C 882.74 182.76 882.54 186.29 883.60 189.09
  C 886.12 195.71 893.59 201.88 900.63 202.89
  C 910.54 204.31 916.89 201.43 925.52 199.59
  C 930.85 198.45 934.48 199.92 939.25 200.79
  C 941.15 201.14 943.00 200.66 943.58 198.74
  Q 944.70 195.02 945.81 193.05
  Q 946.06 192.60 945.96 192.10
  C 945.17 188.13 940.48 188.99 937.52 189.00
  Q 936.90 189.00 937.31 188.54
  Z"
/>
<path fill="#fefefe" d="
  M 370.92 152.60
  C 372.68 153.39 375.13 153.06 376.71 153.09
  Q 384.21 153.24 389.74 152.97
  C 393.25 152.80 394.92 144.88 395.21 142.31
  C 395.45 140.22 396.70 138.87 396.80 136.93
  Q 396.94 134.43 397.76 132.11
  C 398.87 129.00 399.29 126.30 400.35 123.07
  C 401.24 120.38 400.44 116.22 405.27 116.05
  Q 414.70 115.71 424.20 116.12
  Q 425.71 116.18 425.33 117.65
  L 402.55 203.73
  A 1.70 1.69 7.3 0 1 400.91 204.99
  L 379.99 205.07
  Q 379.35 205.07 379.43 204.44
  C 379.84 201.51 380.06 198.84 381.16 196.09
  C 381.99 194.00 382.16 191.60 382.82 189.41
  C 383.99 185.55 384.54 181.70 385.78 177.95
  Q 386.45 175.91 386.97 171.24
  Q 387.33 168.02 384.26 167.95
  Q 375.89 167.77 366.97 168.17
  A 2.61 2.60 -81.1 0 0 364.65 169.87
  C 362.98 174.41 362.14 179.26 360.51 183.92
  C 359.91 185.65 359.69 187.72 359.23 189.32
  Q 357.13 196.57 355.70 203.57
  A 1.75 1.74 5.5 0 1 354.00 204.97
  L 333.23 205.08
  A 0.93 0.93 0.0 0 1 332.31 203.99
  Q 332.65 202.01 333.03 199.85
  C 333.49 197.16 334.90 194.45 335.22 191.41
  C 335.40 189.71 335.84 188.78 336.44 187.31
  C 337.14 185.61 337.03 183.38 337.60 181.54
  Q 338.76 177.84 338.83 177.57
  Q 342.48 162.63 346.76 147.86
  C 347.49 145.33 348.13 141.94 349.11 139.04
  C 349.91 136.68 350.00 134.10 350.91 131.66
  C 351.98 128.80 351.90 126.30 352.93 123.65
  C 354.12 120.61 353.53 116.28 358.12 116.03
  Q 367.19 115.55 376.34 116.22
  Q 377.89 116.33 377.70 117.88
  C 377.24 121.49 375.68 124.90 375.06 128.09
  Q 373.97 133.68 372.33 139.14
  C 371.06 143.35 370.52 146.85 370.01 150.98
  A 1.57 1.55 16.0 0 0 370.92 152.60
  Z
  M 393.00 165.08
  C 392.56 168.88 390.93 173.19 390.02 176.98
  Q 389.86 177.67 388.63 181.41
  C 387.96 183.45 388.10 185.86 387.32 187.68
  C 385.98 190.81 385.82 193.64 385.32 196.98
  C 384.99 199.17 385.79 200.58 387.99 200.86
  C 390.70 201.20 396.22 201.67 398.59 200.17
  C 401.50 198.33 400.81 194.53 401.71 191.62
  Q 406.69 175.40 407.82 169.99
  C 408.46 166.92 409.53 164.06 410.04 161.46
  C 411.33 154.82 413.48 148.00 414.91 141.81
  Q 416.28 135.84 417.99 129.94
  C 418.97 126.53 420.47 120.55 415.51 120.06
  C 412.39 119.76 408.54 119.44 405.94 121.21
  C 402.46 123.58 403.21 127.36 402.18 130.80
  Q 401.14 134.24 401.13 134.29
  C 400.79 136.31 400.69 137.75 399.81 139.79
  C 398.94 141.81 398.82 144.14 398.24 146.04
  Q 397.09 149.81 396.43 154.32
  A 2.89 2.88 3.9 0 1 393.61 156.78
  L 365.40 157.08
  Q 364.84 157.09 364.81 156.53
  Q 364.66 153.44 365.50 150.49
  C 367.35 144.01 368.86 137.46 370.61 130.95
  C 371.34 128.27 372.75 123.65 371.62 120.85
  Q 371.42 120.35 370.89 120.27
  Q 366.08 119.51 361.28 120.24
  C 357.09 120.87 356.13 125.20 355.77 128.67
  Q 355.62 130.02 354.72 132.18
  C 354.02 133.87 353.83 136.12 353.43 137.59
  Q 348.67 155.11 343.74 172.59
  C 343.17 174.63 342.99 177.13 342.31 179.33
  C 340.39 185.58 338.61 191.98 337.97 198.52
  A 2.28 2.27 4.7 0 0 340.08 201.00
  C 342.80 201.18 349.39 201.73 351.62 200.12
  C 354.54 198.00 353.94 193.60 354.86 190.44
  C 356.19 185.89 357.38 181.84 358.57 176.75
  Q 359.21 174.01 360.19 171.36
  C 361.12 168.87 360.76 164.05 364.50 164.04
  Q 378.24 164.01 392.05 164.01
  A 0.96 0.95 3.5 0 1 393.00 165.08
  Z"
/>
<path fill="#fefefe" d="
  M 478.45 197.16
  Q 479.06 196.09 479.19 194.85
  Q 479.25 194.37 479.71 194.20
  Q 483.18 192.99 484.08 191.30
  C 489.04 182.09 495.20 172.45 499.87 164.25
  Q 503.44 157.99 507.03 151.74
  C 510.17 146.29 513.64 141.17 516.48 135.55
  C 519.57 129.43 523.59 123.74 526.83 117.60
  A 3.20 3.20 0.0 0 1 529.66 115.89
  L 553.91 115.97
  A 1.61 1.60 -4.1 0 1 555.50 117.34
  C 555.92 120.26 556.45 123.15 556.55 126.04
  Q 557.12 144.32 558.55 162.54
  C 559.60 175.95 559.97 189.48 560.95 203.08
  A 1.81 1.81 0.0 0 1 559.15 205.02
  L 537.84 205.07
  A 1.83 1.83 0.0 0 1 536.01 203.23
  Q 536.04 196.25 535.97 188.99
  Q 535.94 184.98 531.89 184.88
  Q 521.39 184.61 514.50 185.08
  C 511.64 185.27 509.18 189.90 508.08 192.31
  C 506.02 196.84 504.37 199.79 502.39 203.58
  Q 501.65 205.00 500.04 205.00
  L 413.32 205.07
  Q 411.92 205.07 412.08 203.68
  C 412.23 202.42 413.29 201.26 413.61 199.87
  C 417.72 182.18 423.18 165.30 427.32 147.16
  Q 430.34 133.97 434.30 121.02
  Q 435.00 118.72 435.99 116.76
  A 1.44 1.42 -76.3 0 1 437.26 115.98
  L 493.71 116.02
  Q 494.88 116.02 495.01 117.18
  Q 495.36 120.21 494.09 123.32
  C 493.20 125.53 493.02 127.14 492.81 129.29
  A 1.92 1.92 0.0 0 1 490.88 131.01
  Q 474.89 130.88 459.00 131.13
  C 453.12 131.22 452.34 142.19 450.71 146.68
  C 449.63 149.63 449.98 153.03 453.76 153.01
  Q 468.43 152.93 482.91 152.99
  A 0.88 0.88 0.0 0 1 483.74 154.15
  C 482.31 158.33 481.94 162.81 479.79 166.61
  A 2.75 2.74 -75.2 0 1 477.40 168.01
  Q 463.62 167.97 449.50 168.03
  C 442.61 168.06 444.64 171.67 443.23 176.46
  C 442.37 179.38 440.70 184.62 441.02 188.63
  A 0.97 0.97 0.0 0 0 441.63 189.45
  Q 442.95 189.98 444.75 189.99
  Q 459.38 190.13 474.00 189.93
  Q 478.28 189.87 479.06 193.82
  Q 479.15 194.30 478.80 194.64
  Q 477.82 195.60 477.91 197.03
  Q 477.97 198.01 478.45 197.16
  Z
  M 435.04 193.78
  C 435.46 189.28 437.40 184.44 438.30 180.73
  Q 440.21 172.91 442.30 165.36
  A 1.72 1.71 -82.2 0 1 443.95 164.10
  L 475.44 163.90
  A 2.46 2.46 0.0 0 0 477.87 161.16
  L 477.78 160.36
  A 3.79 3.78 86.8 0 0 474.02 157.00
  L 446.14 157.07
  Q 443.58 157.07 444.72 154.78
  Q 445.61 153.00 446.09 150.50
  C 446.80 146.70 447.93 143.50 448.80 139.94
  C 449.41 137.42 450.78 134.31 451.13 131.19
  C 451.43 128.47 451.81 127.18 454.75 127.15
  Q 470.37 126.98 487.34 126.78
  A 2.50 2.50 0.0 0 0 489.81 124.16
  L 489.78 123.38
  Q 489.62 120.15 486.38 120.07
  Q 463.37 119.54 441.63 120.33
  Q 438.62 120.44 437.48 123.48
  C 435.66 128.31 434.93 132.66 433.80 137.18
  Q 427.84 161.04 421.29 184.74
  Q 420.14 188.89 419.76 190.95
  C 419.11 194.40 415.12 201.00 422.25 201.00
  Q 442.00 201.00 461.75 201.20
  Q 463.26 201.22 469.04 200.69
  Q 471.00 200.51 471.00 198.54
  L 471.00 197.30
  Q 470.99 195.11 468.80 195.10
  L 436.03 194.87
  Q 434.94 194.86 435.04 193.78
  Z
  M 539.29 181.91
  C 540.65 186.55 539.81 192.24 540.21 197.16
  C 540.38 199.25 541.03 200.70 543.24 200.90
  Q 548.76 201.38 554.28 200.52
  A 1.21 1.20 13.2 0 0 555.06 200.04
  Q 555.86 198.94 555.91 197.50
  C 556.39 182.47 554.37 164.82 553.71 153.02
  Q 552.91 138.38 551.99 123.75
  Q 551.77 120.30 548.38 120.11
  Q 540.38 119.66 532.38 120.17
  Q 529.56 120.35 528.74 121.73
  Q 521.72 133.51 519.16 138.17
  C 516.13 143.68 512.59 149.10 509.92 153.87
  C 503.05 166.13 493.90 180.69 486.02 195.21
  C 482.03 202.56 493.18 201.28 496.85 201.03
  C 498.77 200.90 499.80 200.33 500.72 198.73
  Q 505.33 190.67 509.79 182.72
  A 3.41 3.40 -75.3 0 1 512.78 180.97
  L 538.22 181.10
  Q 539.06 181.10 539.29 181.91
  Z"
/>
<path fill="#fefefe" d="
  M 604.29 170.04
  Q 607.50 168.68 608.82 166.30
  C 617.09 151.36 625.01 136.27 633.39 121.39
  C 636.22 116.36 636.61 115.86 642.75 115.92
  Q 655.76 116.04 668.78 116.02
  C 672.84 116.02 680.56 115.54 686.30 116.10
  A 3.09 3.09 0.0 0 1 688.96 118.24
  Q 692.32 128.67 695.00 139.06
  C 696.18 143.66 699.00 146.89 703.03 142.06
  Q 713.16 129.93 723.46 117.96
  C 724.65 116.58 725.77 116.04 727.70 115.93
  Q 734.87 115.50 742.31 116.15
  Q 743.36 116.24 742.98 117.23
  Q 742.58 118.26 741.50 119.49
  Q 726.58 136.35 711.78 153.29
  C 706.42 159.42 700.69 164.12 698.92 172.52
  C 696.83 182.43 694.00 192.30 691.29 202.15
  A 3.88 3.88 0.0 0 1 687.55 205.01
  L 667.98 205.02
  A 0.95 0.95 0.0 0 1 667.04 203.90
  C 667.29 202.55 667.96 201.23 668.26 200.00
  Q 671.49 186.78 675.29 173.71
  C 676.33 170.13 677.37 165.88 676.18 162.22
  C 674.20 156.14 672.23 150.01 669.74 144.12
  C 668.97 142.30 668.89 140.55 668.02 138.65
  Q 667.62 137.77 667.49 137.29
  Q 665.98 131.77 664.46 126.25
  Q 664.11 124.96 661.00 122.43
  Q 660.65 122.14 660.22 122.28
  Q 657.60 123.14 656.54 125.04
  C 651.82 133.46 646.56 141.71 641.91 149.99
  C 636.64 159.35 630.66 168.30 625.65 177.79
  Q 623.17 182.50 620.38 187.04
  Q 615.25 195.39 610.68 203.29
  A 3.34 3.32 -75.0 0 1 607.82 204.95
  L 582.00 205.14
  A 1.20 1.20 0.0 0 1 580.80 204.01
  L 575.94 118.09
  Q 575.82 116.00 577.92 116.00
  L 598.80 115.98
  Q 599.86 115.98 599.90 117.04
  Q 600.54 135.90 601.22 155.25
  C 601.41 160.90 601.19 165.75 603.47 169.76
  A 0.66 0.66 0.0 0 0 604.29 170.04
  Z
  M 695.47 154.76
  C 694.64 153.00 694.44 150.49 693.61 148.48
  C 692.91 146.76 692.98 144.88 692.29 143.07
  Q 691.43 140.81 691.19 139.80
  Q 689.61 133.14 686.47 124.00
  C 684.90 119.43 682.45 119.94 677.79 119.86
  Q 673.13 119.78 670.50 120.11
  C 665.81 120.70 666.94 123.87 668.17 126.92
  C 668.99 128.96 669.24 130.99 670.18 133.02
  C 671.21 135.24 671.05 137.39 672.16 139.90
  C 672.95 141.68 673.12 143.53 673.89 145.29
  C 674.89 147.55 675.38 150.07 676.24 152.19
  C 678.07 156.66 681.12 163.41 680.42 168.26
  C 679.37 175.60 676.38 182.75 674.68 189.98
  C 673.89 193.33 671.72 196.21 673.79 199.74
  Q 674.05 200.18 674.53 200.34
  C 678.51 201.70 686.62 202.29 688.51 197.78
  Q 689.74 194.84 691.12 188.19
  C 691.45 186.59 692.63 184.74 692.77 183.50
  Q 693.11 180.53 693.70 178.42
  Q 694.73 174.68 694.94 173.46
  Q 695.55 169.96 696.71 166.56
  Q 697.48 164.28 699.44 162.26
  C 704.95 156.57 710.11 150.12 715.20 144.59
  Q 723.68 135.38 732.13 124.64
  A 2.48 2.48 0.0 0 0 731.41 120.96
  L 730.73 120.57
  Q 727.68 118.83 725.40 121.49
  L 696.72 154.92
  Q 695.96 155.80 695.47 154.76
  Z
  M 599.47 189.85
  Q 598.06 191.15 598.04 189.23
  C 597.92 176.61 597.02 163.77 596.83 151.60
  Q 596.64 139.65 596.02 127.70
  C 595.92 125.81 596.12 123.62 595.34 121.56
  A 1.78 1.77 -4.9 0 0 593.99 120.43
  Q 589.30 119.57 584.23 120.17
  Q 581.18 120.54 581.09 123.75
  Q 580.64 139.17 581.93 153.27
  C 583.06 165.60 582.47 177.40 584.00 189.20
  Q 584.52 193.13 585.08 197.07
  C 585.49 199.92 586.09 200.79 589.01 200.88
  Q 598.63 201.21 603.79 201.07
  C 607.34 200.97 609.20 199.09 610.87 196.29
  Q 615.62 188.33 620.20 180.27
  C 625.85 170.30 632.04 160.19 637.78 150.02
  C 641.68 143.11 647.08 135.05 651.20 127.25
  C 652.38 125.02 653.41 120.32 649.50 120.08
  C 645.47 119.84 639.00 118.59 636.60 122.90
  C 627.39 139.40 618.74 156.20 609.22 172.53
  Q 604.64 180.38 600.35 188.39
  Q 599.67 189.66 599.47 189.85
  Z"
/>
<path fill="#fefefe" d="
  M 1038.92 187.68
  Q 1039.64 185.22 1039.98 183.58
  C 1040.91 179.12 1042.16 174.79 1043.23 170.38
  Q 1045.57 160.73 1047.39 154.88
  C 1050.65 144.37 1052.98 134.99 1055.25 125.01
  C 1055.74 122.88 1057.10 120.51 1057.14 117.86
  A 1.92 1.92 0.0 0 1 1059.06 115.97
  L 1078.95 116.00
  Q 1080.06 116.00 1080.09 117.11
  C 1080.19 121.15 1078.72 124.48 1077.85 128.40
  C 1077.31 130.78 1076.05 134.34 1075.62 138.02
  C 1075.50 139.03 1074.53 140.33 1074.35 141.72
  C 1073.86 145.47 1072.42 149.65 1071.70 152.39
  Q 1067.76 167.49 1063.43 182.49
  C 1062.00 187.45 1061.06 192.64 1059.72 197.62
  Q 1059.00 200.29 1058.82 203.13
  Q 1058.75 204.06 1057.86 204.34
  Q 1056.83 204.66 1055.37 204.73
  Q 1045.71 205.21 1036.05 204.98
  Q 1034.88 204.96 1035.09 203.81
  Q 1036.55 195.76 1038.92 187.68
  Z
  M 1069.50 120.03
  C 1063.45 119.70 1059.56 119.47 1058.77 126.39
  Q 1058.61 127.86 1058.07 129.29
  C 1057.02 132.09 1056.66 135.46 1055.99 137.87
  Q 1052.46 150.77 1048.87 163.67
  C 1047.33 169.20 1046.37 175.14 1044.56 180.48
  C 1042.91 185.36 1042.49 190.92 1040.70 195.74
  C 1038.34 202.10 1046.14 201.23 1049.79 201.09
  C 1053.08 200.96 1055.77 199.10 1056.47 196.01
  Q 1060.34 179.13 1065.33 162.55
  C 1065.94 160.52 1066.09 157.98 1066.68 156.25
  C 1067.80 152.97 1068.33 149.49 1069.09 146.98
  Q 1070.86 141.12 1072.21 135.15
  C 1072.82 132.49 1075.73 125.10 1074.56 122.00
  C 1073.79 119.98 1071.39 120.13 1069.50 120.03
  Z"
/>
<path fill="#fefefe" d="
  M 1174.01 188.37
  A 0.50 0.50 0.0 0 0 1173.19 188.07
  Q 1171.93 189.14 1171.66 190.77
  A 1.34 1.34 0.0 0 1 1171.14 191.62
  Q 1168.55 193.54 1168.36 195.49
  Q 1167.90 200.26 1165.83 204.35
  A 1.27 1.26 13.3 0 1 1164.70 205.04
  L 1143.77 205.04
  A 0.92 0.92 0.0 0 1 1142.86 204.01
  C 1143.18 201.48 1144.38 199.15 1144.94 196.63
  Q 1145.86 192.45 1146.14 191.42
  Q 1151.61 171.72 1156.95 151.98
  Q 1157.66 149.35 1158.02 147.68
  C 1159.18 142.41 1160.76 137.24 1161.83 131.93
  Q 1162.18 130.19 1163.35 126.42
  C 1164.84 121.56 1163.46 116.04 1170.54 115.99
  Q 1182.69 115.90 1190.51 116.10
  Q 1192.84 116.17 1192.69 118.75
  Q 1191.57 137.38 1191.91 156.04
  C 1191.95 158.35 1190.82 167.56 1196.15 164.89
  Q 1197.49 164.22 1198.14 162.92
  Q 1202.46 154.33 1206.84 145.78
  C 1209.92 139.76 1216.14 128.70 1220.33 119.59
  C 1221.45 117.17 1223.19 116.04 1226.00 116.00
  Q 1236.48 115.86 1247.36 116.09
  Q 1248.85 116.13 1248.52 117.57
  Q 1246.73 125.65 1244.00 134.16
  C 1243.19 136.69 1242.89 139.53 1242.03 142.21
  C 1241.15 144.98 1240.65 147.59 1239.87 150.63
  Q 1233.19 176.75 1229.66 189.48
  C 1228.66 193.06 1227.22 199.04 1225.58 203.85
  A 1.78 1.77 9.4 0 1 1223.90 205.05
  L 1203.67 205.04
  A 0.96 0.95 -87.8 0 1 1202.72 204.01
  Q 1203.05 199.76 1204.96 195.41
  Q 1205.69 193.74 1204.26 191.45
  A 1.24 1.21 -7.5 0 0 1203.54 190.91
  Q 1200.31 190.02 1198.70 193.16
  Q 1195.78 198.84 1193.22 204.29
  A 1.35 1.35 0.0 0 1 1191.98 205.07
  L 1176.62 204.96
  Q 1175.00 204.95 1174.99 203.33
  C 1174.98 200.21 1175.69 194.29 1173.65 191.58
  Q 1173.50 191.37 1173.23 191.40
  Q 1172.94 191.44 1173.28 190.81
  A 1.88 1.63 -14.3 0 1 1173.44 190.58
  Q 1174.24 189.63 1174.01 188.37
  Z
  M 1180.85 139.02
  Q 1181.59 164.95 1180.15 194.26
  C 1179.87 199.92 1181.36 201.77 1187.29 201.21
  C 1190.22 200.93 1191.83 199.28 1193.08 196.81
  Q 1204.59 174.11 1216.37 151.54
  C 1218.39 147.68 1220.85 141.85 1223.54 137.20
  Q 1223.96 136.46 1223.99 137.31
  C 1224.10 139.83 1222.65 142.23 1222.24 144.23
  C 1221.73 146.80 1220.69 149.12 1220.12 151.56
  C 1217.65 162.21 1214.40 172.71 1211.56 183.26
  C 1210.94 185.52 1210.72 187.46 1209.82 189.82
  C 1208.67 192.87 1207.45 200.29 1212.24 200.87
  C 1214.52 201.15 1222.83 202.02 1223.57 198.75
  C 1225.49 190.18 1227.70 184.32 1229.16 177.47
  C 1229.64 175.20 1230.61 173.09 1231.04 170.71
  Q 1231.53 167.95 1232.27 165.67
  C 1233.07 163.20 1233.29 160.55 1234.01 158.18
  C 1237.02 148.28 1238.86 139.63 1242.55 125.47
  Q 1243.92 120.21 1239.01 120.01
  Q 1236.68 119.92 1228.53 119.96
  C 1225.55 119.98 1223.69 120.56 1222.48 123.24
  C 1219.75 129.27 1215.85 135.78 1213.35 140.70
  C 1205.10 157.02 1196.65 173.26 1188.82 189.79
  Q 1188.33 190.84 1188.23 189.69
  Q 1187.88 185.49 1187.95 180.75
  Q 1188.40 152.50 1188.14 124.25
  Q 1188.10 120.24 1184.01 120.12
  Q 1176.22 119.90 1171.50 120.14
  C 1167.18 120.35 1168.39 124.64 1167.00 127.62
  C 1166.03 129.71 1165.80 132.39 1165.33 134.11
  Q 1161.55 147.75 1158.03 161.46
  C 1157.01 165.42 1155.75 169.24 1154.79 173.21
  C 1153.57 178.29 1151.76 183.14 1150.85 188.39
  C 1150.37 191.14 1146.80 199.32 1150.98 200.53
  C 1153.49 201.25 1158.71 201.41 1160.99 200.89
  Q 1163.29 200.38 1164.08 197.76
  C 1165.75 192.25 1168.02 183.94 1169.86 176.37
  Q 1170.85 172.29 1172.04 168.25
  C 1172.74 165.90 1173.07 163.10 1173.89 160.58
  C 1174.81 157.78 1175.24 155.09 1176.10 152.08
  Q 1178.23 144.55 1179.39 138.89
  Q 1180.67 132.64 1180.85 139.02
  Z"
/>
<path fill="#fefefe" d="
  M 1360.66 159.31
  C 1363.16 158.72 1363.90 156.11 1364.19 153.78
  C 1364.52 151.09 1365.63 148.88 1366.13 146.22
  C 1367.04 141.30 1368.75 136.48 1369.83 131.58
  C 1370.48 128.66 1371.76 124.29 1372.45 120.26
  C 1372.95 117.29 1374.93 116.08 1377.95 116.02
  Q 1386.72 115.83 1395.26 116.12
  Q 1397.50 116.20 1396.87 118.35
  C 1395.02 124.67 1393.49 131.17 1391.58 137.57
  C 1390.92 139.81 1390.86 142.00 1390.07 144.25
  C 1389.08 147.06 1388.76 149.99 1387.92 152.89
  Q 1387.40 154.66 1386.72 157.49
  Q 1384.17 168.10 1377.17 192.78
  C 1376.33 195.72 1375.72 200.78 1373.67 204.58
  A 0.88 0.87 -75.3 0 1 1372.91 205.03
  L 1351.09 205.05
  Q 1349.17 205.05 1349.13 203.13
  C 1349.03 198.78 1347.51 193.89 1346.95 190.84
  Q 1344.40 177.08 1343.39 169.38
  C 1342.33 161.36 1337.17 164.56 1335.72 169.76
  Q 1333.42 177.94 1331.42 186.19
  C 1330.67 189.29 1329.27 193.57 1328.59 197.41
  C 1328.21 199.50 1326.90 201.37 1326.79 203.59
  A 1.43 1.42 -88.7 0 1 1325.37 204.96
  L 1304.63 205.07
  A 0.86 0.85 1.6 0 1 1303.77 204.17
  Q 1303.87 202.46 1304.11 200.61
  C 1304.40 198.32 1305.68 196.23 1306.14 193.78
  Q 1306.50 191.88 1307.05 190.29
  C 1307.96 187.65 1308.16 184.75 1308.90 182.27
  C 1310.34 177.39 1311.48 171.77 1312.98 166.64
  Q 1316.47 154.76 1319.46 142.75
  C 1319.67 141.87 1320.26 141.00 1320.47 140.06
  Q 1321.56 134.97 1322.80 129.92
  C 1323.43 127.34 1325.03 122.99 1325.49 119.26
  C 1325.77 117.02 1326.87 116.10 1329.18 116.04
  Q 1339.12 115.81 1348.89 116.07
  A 1.26 1.26 0.0 0 1 1350.00 116.80
  Q 1350.93 118.79 1351.45 121.26
  Q 1353.62 131.61 1355.09 142.08
  C 1355.59 145.64 1357.03 150.30 1357.14 154.70
  C 1357.19 156.92 1357.97 158.18 1359.80 159.19
  A 1.20 1.17 52.3 0 0 1360.66 159.31
  Z
  M 1341.16 135.65
  Q 1341.45 135.73 1341.50 136.03
  L 1352.15 198.28
  Q 1352.63 201.11 1355.51 201.10
  L 1368.59 201.04
  A 3.15 3.14 8.2 0 0 1371.59 198.80
  Q 1375.44 185.92 1378.80 172.44
  C 1379.42 169.94 1380.67 166.75 1381.19 163.72
  C 1381.64 161.08 1382.75 158.69 1383.14 155.95
  Q 1383.41 154.06 1384.03 152.40
  C 1384.90 150.07 1385.48 146.83 1385.91 145.19
  Q 1388.43 135.54 1390.72 125.85
  C 1392.51 118.28 1383.88 119.91 1379.75 120.05
  C 1375.80 120.18 1376.03 124.21 1374.82 126.88
  C 1373.60 129.55 1373.89 132.23 1372.77 135.22
  C 1371.84 137.68 1371.81 140.43 1371.10 142.73
  C 1368.53 151.10 1366.69 160.18 1363.50 169.50
  Q 1362.33 172.92 1360.65 183.26
  Q 1360.34 185.16 1359.37 185.84
  Q 1358.39 186.51 1358.13 185.35
  Q 1357.13 181.02 1356.79 177.08
  C 1356.48 173.38 1355.43 170.11 1355.09 166.13
  C 1354.73 162.01 1353.52 158.09 1353.09 154.09
  Q 1352.71 150.50 1351.91 146.98
  C 1351.14 143.58 1350.92 140.68 1350.68 137.41
  C 1350.50 135.18 1349.37 133.48 1349.22 131.12
  C 1348.40 118.41 1343.95 119.77 1332.76 120.12
  C 1327.52 120.29 1326.79 130.19 1325.88 133.37
  C 1324.13 139.45 1322.69 145.95 1321.04 151.71
  C 1316.76 166.63 1313.04 181.28 1309.43 196.37
  C 1308.84 198.82 1309.46 200.56 1312.14 200.81
  Q 1316.93 201.27 1322.16 200.88
  A 2.67 2.66 -86.4 0 0 1324.57 198.75
  C 1326.79 187.66 1329.99 176.65 1333.10 165.71
  C 1333.67 163.73 1334.10 160.72 1335.08 158.33
  C 1335.73 156.74 1335.90 155.44 1336.13 153.84
  C 1336.48 151.36 1337.61 149.22 1338.10 146.69
  C 1338.83 142.96 1340.06 139.77 1340.51 135.79
  A 0.28 0.28 0.0 0 1 1340.86 135.56
  L 1341.16 135.65
  Z"
/>
<path fill="#fefefe" d="
  M 841.86 144.04
  C 841.33 146.72 837.64 152.91 843.75 152.97
  C 853.54 153.05 863.55 152.51 873.30 153.04
  A 0.70 0.69 -81.1 0 1 873.93 153.91
  L 871.10 165.02
  Q 870.33 168.05 867.21 168.02
  Q 854.06 167.91 839.25 168.06
  C 833.48 168.12 834.41 173.59 833.20 177.34
  Q 831.86 181.46 831.31 185.78
  C 830.99 188.35 832.17 189.97 834.76 189.99
  Q 849.73 190.11 865.67 189.96
  Q 867.71 189.95 867.22 191.92
  L 864.25 203.91
  A 1.39 1.39 0.0 0 1 862.90 204.97
  L 802.98 205.11
  A 0.87 0.87 0.0 0 1 802.21 203.84
  C 803.73 200.87 804.21 197.36 805.14 194.40
  C 805.93 191.91 806.28 189.12 806.93 186.88
  Q 808.67 180.79 810.50 174.73
  C 811.06 172.87 811.18 170.75 811.92 168.64
  C 812.94 165.77 813.24 162.75 814.10 159.87
  Q 814.62 158.12 815.36 155.27
  Q 819.84 138.01 824.47 120.80
  Q 825.06 118.61 825.97 116.78
  A 1.46 1.45 13.2 0 1 827.27 115.98
  L 883.84 116.01
  Q 885.05 116.02 885.06 117.22
  C 885.12 121.51 883.42 125.26 882.74 129.30
  A 2.05 2.05 0.0 0 1 880.71 131.01
  Q 864.88 130.90 849.50 131.01
  C 844.07 131.05 842.64 140.04 841.86 144.04
  Z
  M 835.05 155.68
  C 835.84 152.65 836.27 149.66 837.36 146.51
  Q 838.53 143.11 839.20 139.57
  C 839.53 137.82 840.64 136.90 840.78 134.95
  C 840.96 132.39 841.51 127.12 844.86 127.09
  Q 860.56 126.94 876.25 126.92
  C 879.59 126.91 881.30 122.92 878.93 121.08
  C 876.53 119.24 868.87 119.87 864.87 119.87
  Q 840.20 119.90 831.50 120.29
  C 827.33 120.48 826.72 126.60 825.71 129.71
  C 825.10 131.60 824.84 133.91 824.12 135.98
  C 822.23 141.45 821.71 147.46 819.76 152.91
  C 819.01 155.03 818.92 157.37 818.33 159.34
  Q 816.84 164.26 815.61 169.25
  C 813.61 177.41 811.58 184.30 809.54 191.83
  C 808.73 194.82 805.60 200.66 811.76 200.74
  C 827.43 200.95 843.30 201.68 858.96 200.83
  A 2.19 2.19 0.0 0 0 861.03 198.71
  L 861.05 197.99
  Q 861.14 195.09 858.23 195.06
  L 826.63 194.80
  Q 824.89 194.78 825.31 193.09
  L 832.30 165.49
  A 1.86 1.85 7.0 0 1 834.10 164.09
  L 864.71 163.95
  Q 868.11 163.94 867.98 160.54
  L 867.96 159.94
  A 2.76 2.76 0.0 0 0 865.43 157.29
  C 855.72 156.48 845.94 157.33 836.04 157.00
  Q 834.72 156.96 835.05 155.68
  Z"
/>
<path fill="#fefefe" d="
  M 987.48 192.02
  C 995.61 193.09 1001.34 187.75 1004.79 180.99
  C 1007.11 176.44 1007.46 171.51 1008.97 166.30
  Q 1009.57 164.22 1010.27 160.50
  C 1010.50 159.31 1011.29 157.73 1011.63 156.30
  Q 1014.62 143.61 1018.24 131.09
  C 1019.41 127.02 1020.54 123.72 1021.19 118.99
  Q 1021.54 116.40 1024.51 116.28
  Q 1034.00 115.88 1044.09 116.03
  Q 1046.18 116.06 1045.19 117.90
  C 1043.69 120.68 1043.78 124.56 1042.81 127.66
  C 1042.05 130.11 1041.64 132.87 1041.01 135.09
  Q 1035.80 153.37 1030.94 171.74
  Q 1028.77 179.94 1024.54 187.27
  C 1016.37 201.45 999.66 208.19 983.91 207.04
  C 977.85 206.60 972.40 204.34 967.20 201.31
  C 962.05 198.31 959.02 188.75 958.91 183.18
  Q 958.81 177.76 959.48 175.75
  C 960.63 172.26 961.00 168.82 962.16 165.24
  C 962.99 162.65 963.04 160.06 964.02 157.53
  Q 964.60 156.04 964.96 154.51
  Q 969.26 136.44 974.32 118.46
  A 3.42 3.41 8.0 0 1 977.64 115.96
  L 996.19 116.04
  A 1.65 1.64 -84.2 0 1 997.79 118.01
  Q 996.45 124.82 994.50 131.35
  C 992.54 137.91 991.06 144.59 988.90 151.08
  C 988.06 153.59 987.99 156.08 987.16 158.53
  C 986.10 161.63 985.67 164.47 984.55 167.90
  C 983.83 170.12 983.68 172.50 983.09 174.67
  Q 981.44 180.70 982.03 187.00
  C 982.33 190.24 984.36 191.61 987.48 192.02
  Z
  M 970.03 149.28
  C 969.03 152.34 968.46 155.63 967.63 158.79
  C 965.35 167.47 961.66 178.38 963.02 187.00
  Q 963.99 193.12 966.58 195.93
  C 976.24 206.44 995.63 204.37 1007.18 198.80
  C 1018.05 193.55 1024.44 182.75 1027.28 171.39
  Q 1031.00 156.57 1035.30 141.91
  C 1035.90 139.84 1036.03 137.38 1036.72 135.17
  C 1037.87 131.54 1038.51 128.79 1039.70 125.26
  C 1041.68 119.32 1034.36 119.79 1030.39 119.94
  C 1026.98 120.07 1024.55 121.47 1023.74 124.75
  Q 1020.98 135.95 1018.81 142.96
  C 1018.01 145.52 1017.82 148.52 1016.79 151.27
  C 1016.01 153.32 1016.05 155.36 1015.41 157.40
  C 1011.80 168.82 1010.19 186.49 998.76 193.40
  C 993.43 196.62 985.12 197.56 980.48 192.63
  C 976.87 188.81 977.41 181.49 978.51 176.75
  Q 982.11 161.27 987.86 141.48
  C 988.44 139.50 988.77 136.80 989.60 134.55
  Q 990.49 132.14 991.09 129.48
  C 991.77 126.45 995.62 120.52 989.24 120.14
  Q 984.75 119.87 980.26 120.20
  Q 978.23 120.35 977.26 122.76
  C 974.60 129.35 973.72 135.89 971.62 142.43
  C 970.89 144.71 970.78 147.01 970.03 149.28
  Z"
/>
<path fill="#fefefe" d="
  M 1152.10 145.07
  C 1149.06 157.54 1140.66 166.74 1128.32 170.16
  C 1125.82 170.85 1123.44 171.66 1120.82 171.78
  Q 1110.18 172.26 1105.74 172.11
  Q 1101.71 171.97 1100.80 175.68
  C 1098.61 184.68 1096.27 190.64 1094.74 198.03
  C 1094.31 200.10 1093.33 201.77 1092.71 203.71
  A 1.88 1.87 8.6 0 1 1090.92 205.02
  L 1070.62 205.06
  A 0.84 0.84 0.0 0 1 1069.78 204.16
  C 1070.01 200.90 1071.45 197.27 1072.01 195.04
  C 1075.46 181.39 1078.36 171.53 1080.98 161.08
  Q 1081.22 160.12 1082.20 156.97
  C 1083.00 154.39 1083.17 151.90 1084.08 149.30
  C 1085.06 146.52 1085.37 143.57 1086.28 140.81
  C 1087.00 138.60 1087.36 136.14 1087.96 134.08
  Q 1089.52 128.71 1091.55 120.00
  C 1092.15 117.40 1093.94 116.02 1096.74 116.01
  Q 1115.18 115.97 1133.11 116.02
  A 8.10 8.06 -33.8 0 1 1136.04 116.59
  C 1138.84 117.72 1142.09 118.06 1144.63 119.69
  C 1153.96 125.70 1154.51 135.16 1152.10 145.07
  Z
  M 1099.09 168.30
  C 1105.96 167.96 1112.86 168.32 1119.75 168.10
  C 1123.32 167.98 1125.87 166.89 1129.09 166.17
  Q 1131.21 165.69 1133.14 164.61
  Q 1141.64 159.85 1145.93 151.11
  Q 1146.95 149.04 1147.87 146.89
  C 1149.68 142.65 1149.33 136.77 1149.08 132.22
  Q 1148.95 129.87 1147.66 128.07
  Q 1144.57 123.76 1141.38 122.38
  Q 1136.02 120.06 1125.75 119.93
  Q 1111.86 119.75 1098.07 120.06
  A 2.82 2.82 0.0 0 0 1095.48 121.95
  C 1092.65 130.05 1090.64 138.01 1088.61 146.34
  C 1085.86 157.64 1082.99 167.98 1080.16 178.79
  C 1079.56 181.08 1078.22 184.17 1077.80 187.11
  C 1077.21 191.18 1074.08 196.08 1077.05 200.02
  Q 1077.36 200.45 1077.88 200.56
  C 1080.39 201.11 1089.46 202.36 1090.54 198.76
  Q 1094.99 183.95 1098.50 168.79
  A 0.64 0.63 -84.6 0 1 1099.09 168.30
  Z"
/>
<path fill="#fefefe" d="
  M 1263.25 185.85
  A 3.18 3.18 0.0 0 0 1266.27 190.04
  L 1298.32 190.03
  A 1.39 1.39 0.0 0 1 1299.67 191.74
  L 1296.81 203.55
  A 1.85 1.85 0.0 0 1 1295.01 204.97
  L 1235.62 205.10
  A 0.81 0.81 0.0 0 1 1234.84 204.08
  L 1244.74 166.99
  Q 1249.85 147.86 1250.38 145.49
  Q 1251.21 141.79 1257.41 118.58
  A 3.47 3.45 7.4 0 1 1260.76 116.01
  L 1316.72 116.01
  Q 1317.96 116.01 1318.01 117.25
  C 1318.12 119.77 1316.54 121.86 1316.23 124.27
  C 1315.89 126.98 1316.20 130.74 1312.25 130.78
  Q 1300.45 130.89 1281.00 131.17
  C 1276.74 131.24 1275.80 137.17 1274.92 141.27
  C 1274.18 144.76 1269.77 152.98 1277.25 153.01
  Q 1290.31 153.07 1304.82 152.89
  Q 1306.69 152.87 1306.16 154.66
  L 1302.60 166.67
  A 1.85 1.84 -81.6 0 1 1300.82 168.00
  Q 1285.86 167.92 1270.75 168.10
  C 1266.28 168.16 1267.26 172.50 1266.26 175.32
  C 1264.97 178.96 1264.38 182.47 1263.25 185.85
  Z
  M 1267.13 155.73
  L 1274.31 129.46
  A 3.14 3.13 -82.5 0 1 1277.30 127.16
  L 1309.47 126.82
  A 2.45 2.44 -2.9 0 0 1311.88 124.16
  L 1311.80 123.24
  Q 1311.50 119.91 1308.15 119.91
  L 1263.36 119.97
  A 2.93 2.91 10.2 0 0 1260.62 121.86
  Q 1258.83 126.65 1257.68 132.17
  C 1257.24 134.25 1256.18 136.29 1255.86 138.60
  Q 1255.51 141.06 1254.82 143.02
  C 1253.87 145.68 1254.04 148.39 1252.90 150.92
  Q 1252.51 151.79 1252.32 152.63
  Q 1248.11 170.60 1244.10 183.12
  Q 1243.15 186.07 1242.76 188.30
  C 1242.16 191.80 1237.77 200.69 1245.00 200.79
  Q 1264.62 201.04 1284.25 201.18
  Q 1286.54 201.20 1291.03 200.78
  A 2.33 2.32 89.1 0 0 1293.14 198.60
  L 1293.17 198.09
  Q 1293.36 195.08 1290.34 195.05
  L 1258.63 194.81
  A 1.49 1.48 18.9 0 1 1257.46 192.43
  Q 1259.17 190.17 1259.16 187.10
  C 1259.15 185.04 1260.68 183.75 1260.85 181.48
  C 1261.12 177.93 1262.67 175.00 1263.13 171.49
  C 1263.44 169.09 1264.71 167.22 1265.20 164.70
  Q 1265.32 164.09 1265.94 164.08
  L 1298.21 163.96
  A 2.60 2.59 -2.3 0 0 1300.79 161.17
  L 1300.73 160.41
  Q 1300.47 157.00 1297.06 157.01
  L 1268.17 157.10
  A 1.08 1.08 0.0 0 1 1267.13 155.73
  Z"
/>
<path fill="#fefefe" d="
  M 1419.70 131.43
  C 1413.85 130.38 1406.84 130.95 1400.95 130.98
  A 1.00 1.00 0.0 0 1 1400.02 129.62
  Q 1401.77 125.10 1402.64 120.62
  C 1403.24 117.52 1404.30 116.03 1407.74 116.02
  Q 1439.67 115.95 1472.01 116.06
  A 1.83 1.82 7.7 0 1 1473.77 118.37
  L 1470.68 129.70
  A 1.82 1.81 8.0 0 1 1468.90 131.03
  Q 1460.68 130.93 1452.50 130.95
  Q 1447.66 130.95 1445.52 135.27
  C 1444.81 136.71 1444.68 139.95 1444.14 141.89
  C 1438.94 160.49 1434.17 179.24 1429.55 197.99
  Q 1429.23 199.30 1427.87 203.16
  Q 1427.34 204.68 1425.99 204.72
  Q 1416.00 205.04 1405.29 205.11
  Q 1403.51 205.13 1404.07 203.44
  C 1405.57 198.88 1406.67 194.23 1408.22 189.32
  C 1408.94 187.03 1409.17 184.79 1410.00 182.47
  Q 1411.07 179.47 1411.30 176.25
  C 1411.36 175.47 1412.24 173.92 1412.50 172.89
  Q 1415.92 159.25 1419.49 145.65
  C 1420.19 142.98 1424.66 132.32 1419.70 131.43
  Z
  M 1427.91 129.04
  C 1426.04 136.07 1424.20 143.54 1421.81 150.81
  Q 1421.04 153.17 1420.73 156.00
  C 1420.57 157.45 1419.68 158.78 1419.42 160.21
  C 1418.15 167.14 1415.82 174.39 1414.31 180.64
  Q 1412.56 187.90 1410.47 194.00
  C 1409.54 196.73 1409.58 200.54 1413.28 200.86
  C 1416.41 201.13 1425.45 202.57 1425.90 197.62
  C 1426.19 194.35 1427.46 191.39 1427.95 188.79
  C 1429.13 182.54 1431.30 175.71 1432.60 170.36
  Q 1434.87 161.06 1437.71 151.91
  C 1438.46 149.48 1439.02 146.31 1440.00 143.62
  Q 1440.58 142.02 1440.88 139.76
  C 1441.22 137.10 1442.47 135.01 1442.90 132.57
  C 1443.24 130.66 1442.88 127.37 1445.75 127.22
  Q 1451.93 126.89 1464.55 126.81
  Q 1467.73 126.79 1468.02 123.62
  L 1468.06 123.19
  Q 1468.34 120.14 1465.28 120.02
  Q 1453.32 119.53 1441.75 120.02
  C 1433.55 120.37 1420.07 119.24 1408.14 120.46
  A 2.35 2.35 0.0 0 0 1406.04 123.00
  L 1406.11 123.80
  Q 1406.37 126.73 1409.31 126.80
  L 1426.51 127.17
  Q 1428.40 127.21 1427.91 129.04
  Z"
/>
<path fill="#fefefe" d="
  M 144.99 118.68
  Q 149.19 117.76 153.50 117.93
  Q 155.16 117.99 154.95 119.27
  A 1.12 1.12 0.0 0 1 154.10 120.18
  C 145.86 122.15 137.32 122.30 128.90 122.68
  Q 127.63 122.73 127.86 121.48
  L 127.90 121.23
  Q 128.13 119.98 129.40 120.02
  Q 137.71 120.28 144.99 118.68
  Z"
/>
<path fill="#fefefe" d="
  M 902.36 156.52
  Q 905.68 144.56 907.52 141.50
  C 909.84 137.63 912.27 132.79 915.60 130.14
  C 920.62 126.16 931.87 123.92 936.18 130.63
  C 940.62 137.54 938.20 141.99 937.13 149.09
  Q 934.17 168.62 925.18 185.19
  Q 923.12 188.99 918.95 192.49
  C 914.35 196.36 904.88 198.39 900.43 192.81
  C 894.88 185.83 897.30 178.17 898.73 170.32
  C 899.33 167.05 900.89 163.04 901.33 159.12
  C 901.41 158.44 902.13 157.33 902.36 156.52
  Z
  M 901.14 178.84
  C 900.25 184.77 901.06 192.11 908.79 192.19
  Q 915.96 192.26 920.25 185.94
  C 924.92 179.05 927.12 172.82 929.89 164.48
  C 930.61 162.29 930.96 159.72 931.70 157.36
  C 933.25 152.43 933.13 147.45 934.32 142.41
  C 935.47 137.58 934.96 133.85 930.75 131.29
  C 923.64 126.97 914.50 134.18 911.84 140.80
  Q 909.83 145.78 908.07 150.84
  Q 903.31 164.53 901.14 178.84
  Z"
/>
<path fill="#fefefe" d="
  M 1130.74 148.37
  Q 1127.10 157.85 1117.94 160.28
  C 1113.44 161.47 1107.16 161.08 1101.94 160.98
  Q 1100.74 160.95 1101.02 159.79
  C 1101.76 156.71 1102.21 153.50 1103.11 150.46
  Q 1105.08 143.78 1106.80 137.03
  C 1107.61 133.83 1109.01 127.29 1112.49 127.05
  Q 1117.66 126.70 1122.78 127.25
  C 1125.07 127.49 1127.18 128.63 1129.37 129.30
  A 3.30 3.29 86.0 0 1 1131.40 131.07
  C 1132.24 132.90 1134.56 136.35 1133.69 138.42
  C 1132.29 141.73 1132.01 145.06 1130.74 148.37
  Z
  M 1129.18 134.55
  C 1126.25 130.75 1122.35 130.93 1118.02 130.92
  C 1114.03 130.91 1112.02 132.28 1110.94 136.02
  Q 1108.76 143.61 1107.61 148.57
  C 1107.03 151.11 1103.99 154.53 1107.97 156.40
  Q 1109.14 156.94 1110.72 157.06
  C 1120.01 157.76 1126.84 152.62 1128.19 143.48
  C 1128.60 140.72 1131.11 137.04 1129.18 134.55
  Z"
/>
<path fill="#fefefe" d="
  M 127.89 135.74
  C 129.39 133.98 133.84 133.62 136.00 133.46
  Q 145.18 132.80 155.06 132.05
  Q 156.13 131.97 156.13 133.04
  L 156.13 133.49
  A 1.38 1.37 -1.1 0 1 154.80 134.86
  C 149.49 135.04 145.07 135.36 139.30 136.40
  C 136.35 136.93 130.88 137.62 128.10 136.55
  A 0.52 0.51 30.5 0 1 127.89 135.74
  Z"
/>
<path fill="#fefefe" d="
  M 537.34 132.79
  Q 538.00 131.60 537.99 132.96
  C 537.93 142.32 537.65 152.28 538.66 161.76
  C 539.01 165.06 540.44 169.98 539.29 173.15
  A 1.21 1.20 -79.9 0 1 538.16 173.94
  L 516.00 173.99
  Q 514.65 174.00 515.30 172.81
  L 537.34 132.79
  Z
  M 527.70 157.43
  C 526.24 160.07 524.64 162.41 523.45 165.13
  C 521.02 170.70 529.95 170.52 532.77 169.58
  C 534.35 169.06 534.81 167.90 534.89 166.37
  Q 535.15 161.44 534.89 156.50
  C 534.73 153.45 531.76 152.96 529.70 154.70
  Q 528.76 155.50 527.70 157.43
  Z"
/>
<path fill="#fefefe" d="
  M 150.00 150.27
  Q 139.58 152.12 128.81 152.00
  A 1.01 1.00 -74.3 0 1 127.96 150.48
  C 128.86 148.98 130.10 149.16 131.61 148.97
  Q 143.25 147.48 155.87 148.25
  A 0.49 0.49 0.0 0 1 156.32 148.70
  L 156.35 148.97
  Q 156.41 149.72 155.65 149.77
  Q 151.16 150.06 150.00 150.27
  Z"
/>
</svg>
